<?xml version="1.0" standalone="no"?>
<!DOCTYPE svg PUBLIC "-//W3C//DTD SVG 20010904//EN"
 "http://www.w3.org/TR/2001/REC-SVG-20010904/DTD/svg10.dtd">
<svg version="1.0" xmlns="http://www.w3.org/2000/svg"
 width="5000.000000pt" height="2618.000000pt" viewBox="0 0 5000.000000 2618.000000"
 preserveAspectRatio="xMidYMid meet">

<g transform="translate(0.000000,2618.000000) scale(0.100000,-0.100000)"
fill="#000000" stroke="none">
<path d="M34274 23891 c-161 -73 -156 -317 8 -386 134 -55 288 49 288 195 0
149 -160 252 -296 191z"/>
<path d="M44715 23894 c-153 -30 -294 -131 -362 -260 -34 -63 -63 -165 -63
-221 l0 -33 155 0 155 0 6 28 c20 92 55 141 127 177 41 20 66 25 124 25 142 0
233 -72 233 -185 0 -69 -28 -111 -150 -225 -138 -128 -201 -215 -236 -324 -26
-83 -48 -243 -38 -271 5 -13 31 -15 163 -15 l157 0 12 92 c19 139 34 164 196
328 159 161 198 222 219 343 41 244 -134 488 -391 543 -83 17 -215 17 -307 -2z"/>
<path d="M9350 23560 c0 -176 -3 -320 -6 -320 -3 0 -27 18 -52 40 -25 23 -74
54 -109 71 -354 169 -756 -51 -839 -461 -24 -121 -16 -296 20 -407 62 -192
229 -361 413 -419 72 -22 201 -29 275 -15 78 16 171 59 237 111 28 22 53 40
56 40 3 0 5 -29 5 -65 l0 -65 163 0 162 0 0 905 0 905 -162 0 -163 0 0 -320z
m-194 -485 c68 -30 138 -101 172 -173 25 -52 27 -68 27 -177 0 -109 -2 -125
-27 -177 -35 -76 -98 -142 -167 -175 -50 -25 -67 -28 -156 -28 -89 0 -105 3
-151 27 -68 36 -147 124 -175 196 -32 80 -32 232 0 313 25 64 86 139 143 175
91 58 228 66 334 19z"/>
<path d="M15666 23869 c-425 -66 -742 -369 -795 -762 -31 -222 2 -430 95 -606
88 -167 219 -294 387 -376 123 -59 232 -85 389 -92 307 -13 528 69 765 285
l51 47 -114 120 -114 120 -42 -41 c-155 -149 -304 -214 -488 -214 -289 0 -527
182 -591 450 -17 72 -17 230 0 300 24 101 80 199 156 275 120 121 246 174 412
176 193 1 337 -55 499 -196 l60 -53 112 110 c62 61 112 115 112 119 0 14 -134
130 -204 177 -88 58 -217 114 -326 140 -99 24 -280 35 -364 21z"/>
<path d="M18826 22832 c-214 -576 -391 -1053 -394 -1059 -3 -10 23 -13 111
-13 l115 0 77 208 c196 524 484 1298 560 1502 46 124 99 267 118 318 l35 92
-117 0 -116 0 -389 -1048z"/>
<path d="M42920 22975 l0 -905 160 0 160 0 2 301 3 300 275 -300 275 -300 204
0 205 -1 -26 28 c-213 227 -598 648 -598 653 0 4 124 145 276 314 152 169 274
308 272 309 -1 1 -95 -1 -208 -4 l-204 -5 -229 -255 c-125 -140 -232 -256
-238 -258 -5 -2 -9 192 -9 512 l0 516 -160 0 -160 0 0 -905z"/>
<path d="M2540 22950 l0 -880 170 0 170 0 0 378 c0 207 0 383 0 390 0 10 59
12 293 10 l292 -3 0 -388 0 -387 168 0 167 0 0 880 0 880 -171 0 -170 0 3
-330 3 -330 -292 0 -293 0 0 330 0 330 -170 0 -170 0 0 -880z"/>
<path d="M16736 23808 c4 -13 143 -408 310 -878 l302 -855 162 0 162 0 314
870 c172 479 314 873 314 878 0 4 -76 7 -169 7 l-169 0 -24 -67 c-14 -38 -114
-317 -223 -620 -109 -304 -201 -550 -204 -547 -3 3 -103 281 -223 617 l-216
612 -172 3 -171 2 7 -22z"/>
<path d="M4641 23392 c-190 -37 -378 -186 -466 -367 -46 -95 -65 -181 -65
-301 0 -200 59 -344 200 -484 91 -91 174 -143 285 -176 83 -26 295 -26 380 0
185 55 335 179 418 346 62 124 81 212 74 350 -8 175 -75 325 -196 445 -168
165 -396 233 -630 187z m291 -320 c109 -48 193 -164 206 -285 22 -187 -57
-346 -206 -415 -49 -23 -70 -27 -147 -27 -78 1 -99 4 -146 27 -67 33 -133 97
-165 160 -54 105 -55 263 -4 372 41 86 134 164 225 187 55 15 186 4 237 -19z"/>
<path d="M10502 23399 c-225 -38 -443 -223 -518 -437 -90 -259 -29 -535 158
-722 79 -81 156 -129 263 -167 72 -25 94 -28 210 -28 139 0 222 18 325 70 153
77 276 224 334 397 75 225 16 496 -146 672 -153 168 -403 253 -626 215z m270
-327 c156 -69 237 -252 197 -444 -24 -113 -99 -207 -202 -254 -53 -25 -74 -29
-147 -28 -69 0 -95 5 -141 26 -79 36 -133 89 -171 166 -31 63 -33 72 -33 182
0 103 3 121 26 171 46 97 120 165 212 195 61 20 199 12 259 -14z"/>
<path d="M12049 23396 c-257 -54 -455 -246 -515 -501 -23 -100 -21 -269 5
-368 46 -175 170 -331 326 -410 112 -56 188 -72 345 -72 164 0 254 20 365 78
56 30 215 174 215 195 0 5 -60 37 -133 71 l-133 62 -67 -45 c-84 -57 -149 -76
-252 -77 -174 0 -291 72 -352 220 -12 31 -23 62 -23 69 0 9 112 12 526 12
l527 0 -6 113 c-7 131 -25 205 -73 302 -81 167 -237 293 -419 340 -86 22 -255
27 -336 11z m326 -303 c67 -34 139 -105 161 -158 8 -19 14 -38 14 -42 0 -8
-689 -7 -698 1 -6 7 41 86 74 125 14 17 46 43 70 57 74 44 121 54 224 51 83
-3 103 -7 155 -34z"/>
<path d="M13390 23392 c-168 -44 -280 -166 -296 -324 -18 -179 84 -312 347
-448 194 -101 245 -154 208 -218 -27 -48 -65 -67 -132 -67 -75 0 -151 34 -225
100 l-49 45 -97 -105 c-76 -82 -96 -109 -91 -125 10 -31 114 -118 180 -151
155 -76 370 -78 516 -3 226 114 285 418 118 608 -42 49 -141 112 -285 184 -66
33 -135 72 -152 87 -48 40 -43 94 10 121 67 34 162 11 246 -59 24 -21 47 -37
51 -37 3 0 51 44 105 99 l98 99 -37 41 c-122 134 -338 199 -515 153z"/>
<path d="M20062 23391 c-66 -23 -117 -63 -159 -125 l-33 -48 0 80 0 80 -140 1
-140 2 0 -656 0 -655 163 0 162 0 -3 327 c-4 478 12 595 93 679 47 50 42 49
163 32 22 -3 27 8 72 132 27 74 50 136 50 137 0 1 -23 9 -52 18 -67 20 -111
19 -176 -4z"/>
<path d="M20995 23403 c-94 -11 -159 -29 -235 -65 -70 -33 -100 -56 -170 -127
-141 -142 -194 -276 -194 -496 0 -135 15 -206 65 -308 83 -170 230 -291 419
-343 91 -25 328 -25 420 0 102 28 214 91 285 161 102 101 105 92 -51 164 -128
60 -136 62 -157 47 -119 -87 -177 -108 -298 -107 -98 1 -162 18 -225 62 -72
49 -125 126 -139 202 l-7 37 525 0 526 0 -4 93 c-7 191 -64 348 -170 465 -146
160 -368 242 -590 215z m247 -305 c83 -38 167 -128 180 -191 3 -16 -18 -17
-334 -17 -186 0 -345 0 -354 0 -13 0 -11 7 8 41 80 142 186 201 353 196 72 -2
101 -8 147 -29z"/>
<path d="M22310 23403 c-304 -51 -441 -363 -260 -592 50 -63 133 -121 285
-200 176 -91 221 -143 187 -213 -51 -102 -218 -83 -361 40 l-45 38 -95 -104
c-53 -57 -97 -107 -99 -111 -6 -16 131 -132 188 -161 89 -45 168 -60 290 -56
125 5 191 24 274 81 193 132 224 420 62 586 -55 56 -128 103 -297 190 -117 59
-144 77 -154 103 -25 60 20 108 103 108 60 -1 125 -29 185 -82 l44 -39 102
103 102 103 -55 55 c-115 115 -302 177 -456 151z"/>
<path d="M25183 23394 c-82 -17 -174 -65 -233 -120 -26 -24 -49 -44 -52 -44
-2 0 -4 33 -4 73 l1 72 -162 2 -163 2 0 -655 0 -654 165 0 165 0 0 363 c0 385
6 449 45 528 30 59 106 126 159 140 135 37 246 -29 280 -167 20 -80 25 -175
25 -546 l1 -318 160 0 160 0 2 313 c1 328 2 353 13 452 17 162 127 275 267
275 69 0 113 -17 150 -56 67 -71 78 -162 78 -631 l0 -353 166 0 166 0 -5 468
c-3 280 -10 491 -17 527 -41 221 -212 350 -452 340 -142 -6 -279 -70 -368
-174 l-46 -52 -38 55 c-95 139 -275 201 -463 160z"/>
<path d="M27355 23395 c-240 -44 -433 -217 -507 -455 -20 -64 -23 -96 -23
-220 0 -186 22 -265 106 -390 82 -121 200 -209 344 -257 72 -24 95 -27 230
-27 169 -1 257 18 370 77 57 30 215 173 215 194 0 9 -249 133 -266 133 -3 0
-23 -14 -44 -30 -163 -129 -414 -125 -547 9 -42 42 -85 120 -97 174 l-6 27
526 0 527 0 -6 118 c-15 318 -190 551 -477 632 -93 26 -249 33 -345 15z m315
-299 c65 -33 112 -75 151 -135 52 -81 73 -76 -321 -76 -192 0 -350 3 -350 7 0
11 39 78 67 114 30 40 107 91 166 110 27 9 76 13 137 11 81 -2 103 -7 150 -31z"/>
<path d="M29752 23394 c-80 -16 -162 -54 -229 -105 -29 -22 -55 -40 -59 -42
-3 -1 -7 27 -8 63 l-1 65 -153 0 c-98 0 -157 -4 -163 -11 -5 -6 -8 -372 -6
-885 l2 -874 160 -3 160 -2 -2 300 c-1 165 2 300 7 300 4 0 28 -16 52 -36 61
-52 167 -100 251 -114 298 -51 582 133 684 445 23 71 26 96 27 225 1 164 -11
224 -71 350 -48 100 -177 231 -275 278 -122 58 -242 73 -376 46z m194 -318
c239 -109 284 -469 82 -651 -72 -64 -142 -88 -248 -83 -100 5 -160 31 -229 99
-105 105 -138 290 -80 445 38 101 145 191 253 214 62 13 164 2 222 -24z"/>
<path d="M31180 23395 c-220 -49 -399 -229 -461 -462 -28 -102 -30 -296 -6
-396 31 -124 82 -212 182 -313 101 -102 174 -144 293 -169 173 -37 328 -2 468
106 28 21 53 39 55 39 3 0 4 -29 3 -65 l-3 -65 165 0 164 0 0 655 0 655 -159
0 c-122 0 -160 -3 -164 -13 -3 -7 -4 -39 -3 -70 1 -31 1 -57 -1 -57 -2 0 -27
18 -55 41 -134 106 -319 150 -478 114z m340 -321 c152 -68 234 -247 200 -433
-22 -120 -96 -222 -197 -272 -41 -20 -63 -24 -148 -24 -86 0 -107 3 -150 25
-67 33 -135 102 -171 175 -27 56 -29 67 -29 180 0 109 2 125 27 177 45 96 137
173 235 198 63 16 166 4 233 -26z"/>
<path d="M32793 23400 c-64 -13 -145 -70 -184 -130 l-34 -53 -3 82 -3 81 -128
0 c-94 0 -131 -4 -139 -13 -8 -9 -12 -206 -12 -655 l0 -642 165 0 165 0 0 383
c1 419 9 504 54 582 14 24 38 53 53 65 28 22 54 23 147 8 17 -3 27 17 68 127
26 72 48 133 48 137 0 10 -98 38 -129 37 -14 -1 -45 -5 -68 -9z"/>
<path d="M33426 23400 c-71 -13 -168 -64 -220 -116 -91 -90 -126 -221 -91
-339 37 -127 132 -219 336 -325 194 -101 245 -154 208 -218 -27 -48 -65 -67
-132 -67 -75 0 -151 34 -225 100 l-49 45 -97 -104 c-53 -57 -96 -111 -96 -119
0 -19 98 -109 154 -142 155 -91 386 -99 546 -19 228 114 287 417 119 608 -42
49 -141 112 -285 184 -171 86 -201 115 -178 177 17 44 127 59 199 26 22 -10
60 -34 83 -55 24 -20 47 -36 51 -36 3 0 51 44 105 99 l98 99 -36 40 c-113 124
-319 193 -490 162z"/>
<path d="M35445 23400 c-63 -13 -142 -47 -205 -90 -32 -22 -62 -44 -65 -50
-15 -25 -25 -5 -25 49 0 72 5 71 -187 71 l-143 0 0 -655 0 -655 165 0 165 0 0
359 c0 198 5 382 10 412 16 85 64 174 117 214 57 43 112 59 182 52 75 -8 122
-42 158 -114 l28 -58 3 -432 3 -433 162 0 162 0 -2 457 c-1 252 -4 483 -6 513
-13 155 -120 287 -275 341 -62 22 -184 31 -247 19z"/>
<path d="M36715 23394 c-210 -46 -375 -203 -448 -429 -19 -60 -22 -91 -22
-225 1 -142 3 -162 27 -231 83 -236 256 -387 491 -427 90 -15 104 -15 192 0
107 18 178 49 254 109 l51 41 -6 -79 c-11 -142 -76 -232 -196 -268 -69 -20
-247 -20 -316 0 -28 9 -71 31 -96 49 l-44 34 -181 4 c-100 1 -181 0 -181 -4 0
-16 43 -103 71 -144 99 -144 249 -226 467 -254 247 -32 486 29 626 160 73 69
117 145 148 257 22 76 22 95 26 735 l3 656 -160 1 -161 2 0 -71 c0 -38 -2 -70
-5 -70 -3 0 -29 18 -57 41 -138 109 -312 149 -483 113z m305 -305 c133 -31
232 -150 248 -299 20 -186 -65 -343 -217 -401 -46 -17 -72 -20 -146 -17 -110
5 -176 34 -247 110 -67 71 -92 139 -92 258 -1 84 3 102 27 155 78 167 235 238
427 194z"/>
<path d="M41095 23404 c-11 -2 -45 -9 -75 -15 -127 -25 -281 -122 -371 -233
-128 -157 -178 -379 -134 -591 50 -241 269 -460 510 -510 307 -64 609 74 753
343 154 290 86 645 -163 852 -61 50 -189 114 -270 135 -61 16 -214 28 -250 19z
m212 -326 c73 -27 154 -102 190 -177 26 -52 28 -65 28 -176 0 -112 -2 -124
-29 -179 -74 -152 -230 -229 -392 -196 -77 16 -107 32 -170 92 -91 86 -131
224 -105 362 26 140 130 256 256 287 63 15 163 10 222 -13z"/>
<path d="M42551 23399 c-62 -12 -147 -71 -179 -124 -15 -25 -30 -45 -34 -45
-5 0 -8 34 -8 75 l0 75 -129 0 c-94 0 -131 -4 -139 -13 -8 -9 -12 -206 -12
-655 l0 -642 165 0 165 0 0 383 c0 217 5 410 11 446 14 87 44 155 87 192 36
32 54 34 156 17 16 -3 27 18 67 127 26 72 48 133 49 137 0 10 -98 38 -129 37
-14 -1 -46 -5 -70 -10z"/>
<path d="M5600 23370 c0 -3 104 -296 232 -652 l233 -648 103 0 c56 0 102 2
102 4 0 6 280 729 284 733 2 2 66 -163 142 -367 l139 -370 101 0 c101 0 102 0
112 28 56 140 461 1266 457 1270 -8 9 -309 1 -315 -8 -3 -5 -61 -167 -130
-360 -82 -231 -128 -347 -134 -338 -4 7 -67 170 -140 361 l-131 348 -98 2 -97
2 -31 -80 c-17 -44 -78 -206 -136 -360 -58 -154 -109 -283 -113 -288 -3 -4
-64 156 -134 355 -71 200 -129 364 -131 366 -5 6 -315 7 -315 2z"/>
<path d="M23103 22952 c5 -474 9 -506 71 -635 84 -176 231 -263 461 -274 225
-11 390 58 493 206 98 138 109 215 111 731 l1 395 -160 0 -160 1 0 -366 c-1
-387 -8 -487 -39 -547 -81 -159 -330 -161 -411 -3 -33 65 -40 153 -40 542 l0
377 -166 0 -166 0 5 -427z"/>
<path d="M34200 22723 l0 -653 160 0 160 0 0 656 0 655 -160 -2 -160 -2 0
-654z"/>
<path d="M38460 23370 c0 -3 104 -296 232 -652 l233 -648 101 0 101 0 133 348
c73 191 138 357 145 370 10 21 26 -16 150 -347 l138 -371 104 0 c56 0 103 1
103 3 0 2 106 293 235 647 129 353 232 647 229 652 -3 5 -73 8 -156 7 l-150
-1 -17 -41 c-9 -23 -69 -187 -132 -364 -63 -178 -116 -323 -119 -323 -3 0 -65
161 -139 358 -73 196 -136 359 -140 362 -3 3 -49 4 -101 2 l-95 -3 -133 -353
c-73 -193 -137 -357 -141 -364 -5 -8 -59 133 -137 353 l-129 366 -158 2 c-86
1 -157 0 -157 -3z"/>
<path d="M44762 22436 c-19 -6 -49 -26 -68 -44 -95 -90 -83 -241 25 -317 38
-27 51 -30 116 -30 65 0 78 3 117 30 62 43 90 103 86 181 -5 82 -38 132 -109
168 -58 28 -112 32 -167 12z"/>
<path d="M41025 18895 c-38 -37 -35 -95 7 -130 38 -32 81 -29 116 11 72 82
-46 197 -123 119z"/>
<path d="M36788 18893 c-115 -30 -207 -105 -256 -211 -24 -51 -27 -69 -27
-167 0 -98 3 -116 26 -165 129 -272 504 -305 672 -58 104 154 84 370 -48 501
-56 56 -118 90 -196 106 -63 13 -100 12 -171 -6z m217 -157 c86 -51 132 -143
122 -247 -20 -223 -286 -307 -431 -137 -77 90 -77 237 2 328 78 92 206 115
307 56z"/>
<path d="M41940 18525 l0 -385 70 0 70 0 0 153 c0 83 5 170 11 191 16 58 58
96 107 96 86 0 101 -41 102 -282 l0 -158 66 0 65 0 -3 229 c-3 215 -4 231 -24
258 -67 91 -182 106 -286 37 l-38 -24 0 135 0 135 -70 0 -70 0 0 -385z"/>
<path d="M47590 18775 l0 -134 -36 24 c-124 84 -283 43 -357 -94 -79 -144 -26
-341 112 -413 86 -45 196 -35 258 24 l23 21 0 -31 0 -32 70 0 70 0 0 385 0
385 -70 0 -70 0 0 -135z m-70 -214 c42 -22 80 -90 80 -140 0 -42 -29 -109 -56
-133 -28 -24 -88 -37 -129 -28 -71 16 -115 78 -115 162 0 123 115 196 220 139z"/>
<path d="M38030 18795 l0 -105 -35 0 -35 0 0 -55 0 -55 35 0 35 0 0 -220 0
-220 70 0 70 0 0 220 0 220 40 0 40 0 0 55 0 55 -40 0 -40 0 0 105 0 105 -70
0 -70 0 0 -105z"/>
<path d="M39650 18795 l0 -105 -35 0 -35 0 0 -54 0 -55 36 -3 36 -3 -2 -217
-1 -218 71 0 70 0 0 220 0 220 40 0 40 0 0 55 0 55 -40 0 -40 0 0 105 0 105
-70 0 -70 0 0 -105z"/>
<path d="M43330 18795 l0 -105 -35 0 -35 0 0 -55 0 -55 35 0 35 0 0 -220 0
-220 70 0 70 0 0 220 0 220 40 0 40 0 0 55 0 55 -40 0 -40 0 0 105 0 105 -70
0 -70 0 0 -105z"/>
<path d="M45268 18798 l-3 -103 -32 -3 c-33 -3 -33 -4 -33 -57 0 -53 0 -54 33
-57 l32 -3 3 -217 2 -218 70 0 70 0 0 220 0 220 40 0 40 0 0 55 0 55 -40 0
-40 0 0 105 0 105 -70 0 -69 0 -3 -102z"/>
<path d="M28557 18863 c-4 -3 -7 -64 -7 -135 l0 -129 -32 24 c-125 93 -303 39
-371 -112 -30 -67 -29 -198 2 -264 30 -62 107 -131 166 -147 60 -17 136 -7
190 25 l44 25 3 -22 c3 -21 9 -23 71 -26 l67 -3 0 386 0 385 -63 0 c-35 0 -67
-3 -70 -7z m-66 -346 c127 -85 70 -297 -81 -297 -87 0 -150 67 -150 160 0 93
63 160 150 160 32 0 58 -7 81 -23z"/>
<path d="M29530 18735 l0 -134 -35 24 c-128 86 -289 42 -363 -99 -23 -44 -27
-63 -27 -141 0 -71 5 -100 22 -137 42 -92 140 -158 234 -158 47 0 117 25 146
52 l23 21 0 -32 0 -32 70 2 70 2 0 384 0 383 -70 0 -70 0 0 -135z m-58 -220
c92 -62 85 -230 -13 -280 -105 -55 -219 20 -219 144 0 38 6 66 20 89 45 73
142 95 212 47z"/>
<path d="M19530 18757 l0 -103 -35 4 -35 4 0 -61 0 -61 35 0 35 0 2 -217 3
-218 68 -3 67 -3 0 221 0 220 40 0 40 0 0 60 c0 43 -4 60 -12 59 -7 -1 -25 -1
-40 0 l-28 1 0 100 0 100 -70 0 -70 0 0 -103z"/>
<path d="M21530 18760 l0 -100 -35 0 -35 0 0 -60 0 -60 35 0 35 0 0 -221 0
-220 70 2 70 2 0 219 0 218 40 0 40 0 0 60 0 60 -40 0 -40 0 0 100 0 100 -70
0 -70 0 0 -100z"/>
<path d="M24300 18761 l0 -100 -37 -3 -38 -3 -3 -57 -4 -58 41 0 41 0 0 -218
0 -219 65 -2 65 -2 0 220 0 221 45 0 46 0 -3 58 -3 57 -42 3 -43 3 0 100 0 99
-65 0 -65 0 0 -99z"/>
<path d="M26230 18760 l0 -100 -35 0 -35 0 0 -60 0 -60 35 0 35 0 0 -220 0
-220 70 0 70 0 0 220 0 220 40 0 40 0 0 60 0 60 -40 0 -40 0 0 100 0 100 -70
0 -70 0 0 -100z"/>
<path d="M30510 18761 l0 -100 -32 -3 c-33 -3 -33 -4 -36 -60 l-3 -58 35 0 36
0 2 -217 3 -218 68 -3 67 -3 0 221 0 220 40 0 40 0 0 60 0 60 -40 0 -40 0 0
100 0 100 -70 0 -70 0 0 -99z"/>
<path d="M18410 18476 l0 -375 203 2 202 2 3 68 3 67 -136 0 -135 0 0 100 0
100 135 0 136 0 -3 68 -3 67 -132 3 -133 3 0 64 0 65 133 0 134 0 2 70 2 70
-205 0 -206 0 0 -374z"/>
<path d="M7628 18810 c-66 -51 -23 -160 62 -160 33 0 80 53 80 90 0 42 -47 90
-88 90 -16 0 -41 -9 -54 -20z"/>
<path d="M4926 18805 c-88 -31 -128 -81 -134 -163 -6 -81 18 -122 125 -219
143 -129 163 -151 163 -183 0 -39 -41 -70 -91 -70 -31 0 -46 7 -74 35 -19 20
-35 40 -35 45 0 18 -24 10 -78 -23 l-52 -33 29 -46 c119 -187 416 -136 438 74
8 82 -24 147 -113 224 -158 137 -175 156 -172 188 6 58 81 61 137 6 35 -36 45
-33 100 24 l35 36 -34 35 c-66 68 -170 98 -244 70z"/>
<path d="M5967 18813 c-4 -3 -7 -177 -7 -385 l0 -378 70 0 c68 0 70 1 70 25 0
26 14 33 26 14 24 -39 148 -60 226 -39 53 15 131 90 158 152 31 72 31 183 0
256 -63 147 -238 203 -364 117 -20 -14 -39 -25 -41 -25 -3 0 -5 61 -5 135 l0
135 -63 0 c-35 0 -67 -3 -70 -7z m375 -359 c59 -56 73 -126 39 -200 -36 -80
-115 -111 -193 -76 -59 26 -88 72 -89 144 -3 108 61 172 164 164 36 -2 55 -10
79 -32z"/>
<path d="M7897 18803 c-4 -3 -7 -51 -7 -105 l0 -98 -35 0 -36 0 3 -57 c3 -57
3 -58 36 -61 l32 -3 0 -215 0 -214 70 0 70 0 0 214 0 215 43 3 42 3 3 57 3 57
-43 3 -43 3 -3 103 -3 102 -63 0 c-34 0 -66 -3 -69 -7z"/>
<path d="M38570 18698 c-19 -5 -49 -21 -67 -34 -40 -30 -43 -30 -43 1 0 24 -2
25 -65 25 l-65 0 0 -375 0 -375 65 0 65 0 0 125 c0 69 3 125 6 125 3 0 18 -8
32 -18 99 -69 220 -55 313 38 62 62 84 117 84 210 -1 95 -22 148 -84 211 -74
73 -147 94 -241 67z m117 -139 c93 -58 97 -207 7 -276 -43 -33 -122 -35 -163
-6 -71 53 -95 159 -51 231 43 70 138 93 207 51z"/>
<path d="M40025 18691 c-61 -28 -87 -62 -93 -121 -8 -87 31 -141 146 -199 74
-38 97 -62 83 -89 -22 -42 -71 -40 -135 3 -37 25 -39 25 -58 8 -11 -10 -30
-31 -41 -47 l-21 -29 39 -34 c102 -88 277 -66 332 41 31 60 14 154 -35 199
-10 9 -55 36 -98 60 -66 35 -79 46 -79 67 0 21 5 26 33 28 21 2 46 -5 68 -19
l36 -22 41 41 41 41 -20 22 c-28 32 -113 69 -159 69 -22 0 -58 -9 -80 -19z"/>
<path d="M40855 18699 c-11 -6 -32 -23 -47 -37 l-28 -26 0 27 c0 26 -2 27 -60
27 l-60 0 0 -275 0 -275 69 0 69 0 4 188 c3 153 6 193 21 219 18 34 46 48 76
38 15 -4 22 5 40 51 12 31 19 59 17 61 -11 11 -83 12 -101 2z"/>
<path d="M41484 18701 c-142 -37 -228 -145 -228 -286 0 -85 24 -145 82 -203
105 -105 315 -110 435 -11 20 17 37 34 37 38 0 5 -24 24 -54 44 -53 35 -53 35
-73 16 -29 -29 -91 -48 -141 -43 -97 10 -147 64 -147 159 0 47 5 67 24 94 29
41 91 70 149 71 41 0 114 -28 127 -50 4 -6 30 2 67 21 l61 31 -38 38 c-21 21
-60 48 -87 60 -54 23 -164 34 -214 21z"/>
<path d="M42947 18696 c-70 -25 -107 -76 -107 -146 0 -73 33 -114 136 -171
109 -60 128 -94 70 -120 -30 -14 -62 -7 -110 26 -20 14 -39 25 -41 25 -2 0
-21 -21 -42 -46 l-38 -47 37 -32 c44 -37 97 -55 164 -55 128 1 215 103 184
215 -15 55 -55 92 -150 140 -76 38 -84 46 -75 75 9 27 57 26 102 -1 l35 -22
41 42 42 42 -37 33 c-61 53 -136 68 -211 42z"/>
<path d="M43772 18690 c-18 -11 -35 -27 -38 -35 -9 -24 -24 -17 -24 10 0 24
-3 25 -55 25 l-55 0 0 -275 0 -275 65 0 65 0 0 158 c1 86 5 176 9 200 11 57
46 94 84 90 27 -3 31 1 49 50 11 29 18 56 15 59 -3 2 -23 7 -44 9 -27 4 -47
-1 -71 -16z"/>
<path d="M44787 18700 c-213 -54 -299 -307 -159 -471 103 -120 332 -134 448
-27 l44 40 -53 37 -52 37 -41 -29 c-53 -37 -142 -42 -195 -11 -131 77 -91 281
59 301 57 8 107 -4 141 -33 l30 -25 38 20 c21 11 47 26 58 34 20 15 20 16 -10
47 -66 69 -207 105 -308 80z"/>
<path d="M46350 18699 c-14 -5 -37 -22 -52 -36 l-28 -27 0 27 c0 26 -2 27 -60
27 l-60 0 0 -275 0 -275 69 0 69 0 4 188 c3 153 6 193 21 219 18 34 46 48 76
38 16 -5 23 4 40 51 12 31 20 58 18 61 -11 10 -74 12 -97 2z"/>
<path d="M46698 18697 c-127 -36 -204 -143 -202 -282 1 -133 75 -237 192 -271
73 -21 182 -15 238 14 47 24 104 69 104 83 0 5 -23 20 -51 35 l-52 26 -47 -26
c-99 -54 -223 -15 -245 77 l-7 27 221 0 221 0 0 43 c0 192 -184 327 -372 274z
m162 -122 c28 -15 70 -60 70 -76 0 -5 -65 -9 -145 -9 -80 0 -145 4 -145 9 0
18 44 64 74 77 41 18 110 17 146 -1z"/>
<path d="M37392 18498 c3 -155 8 -201 22 -233 38 -88 111 -134 212 -135 105 0
177 38 215 113 24 46 38 172 39 345 l0 102 -70 0 -70 0 0 -144 c0 -182 -7
-229 -36 -261 -17 -19 -33 -25 -64 -25 -96 0 -110 32 -110 260 l0 170 -71 0
-71 0 4 -192z"/>
<path d="M39013 18503 c3 -104 10 -205 17 -226 16 -52 85 -122 135 -136 95
-26 196 -8 255 45 60 55 71 99 77 317 l6 187 -72 0 -71 0 0 -170 c0 -227 -14
-260 -108 -260 -49 0 -87 34 -96 88 -3 20 -6 106 -6 190 l0 152 -71 0 -71 0 5
-187z"/>
<path d="M41010 18415 l0 -275 70 0 70 0 0 275 0 275 -70 0 -70 0 0 -275z"/>
<path d="M43962 18498 c5 -218 15 -257 81 -315 80 -70 225 -73 315 -6 68 51
91 150 92 396 l0 117 -70 0 -70 0 0 -159 c0 -87 -3 -172 -6 -190 -10 -48 -49
-81 -96 -81 -94 0 -108 33 -108 260 l0 170 -71 0 -71 0 4 -192z"/>
<path d="M45562 18498 c5 -218 15 -257 81 -315 90 -79 265 -70 340 18 50 58
58 95 64 302 l6 187 -72 0 -71 0 0 -169 c0 -180 -7 -221 -45 -245 -32 -21 -94
-20 -123 2 -33 26 -41 76 -42 255 l0 157 -71 0 -71 0 4 -192z"/>
<path d="M19974 18651 c-18 -11 -39 -30 -48 -42 -16 -23 -16 -23 -16 14 l0 37
-55 0 -55 0 0 -280 0 -280 64 0 64 0 4 188 c3 163 6 191 23 220 20 32 42 44
79 39 24 -3 64 102 44 115 -22 14 -72 9 -104 -11z"/>
<path d="M20318 18659 c-48 -14 -123 -80 -150 -133 -31 -59 -37 -187 -12 -256
59 -165 250 -232 382 -133 l32 24 0 -31 0 -31 68 3 67 3 0 275 0 275 -67 3
-68 3 0 -30 0 -30 -49 30 c-55 35 -139 46 -203 28z m214 -168 c40 -42 40 -43
36 -114 -3 -78 -20 -112 -70 -141 -35 -21 -112 -20 -150 2 -97 57 -99 218 -2
283 23 16 41 19 88 16 54 -3 62 -7 98 -46z"/>
<path d="M21023 18652 c-170 -61 -246 -234 -174 -396 24 -55 82 -113 138 -138
57 -25 166 -34 231 -18 55 13 137 61 152 90 8 15 0 24 -43 52 l-52 35 -34 -26
c-27 -20 -47 -26 -103 -29 -60 -4 -73 -1 -107 21 -95 63 -94 199 3 271 22 17
42 21 100 21 63 0 77 -3 108 -27 l35 -26 57 32 57 32 -45 42 c-59 54 -105 73
-196 78 -57 4 -88 0 -127 -14z"/>
<path d="M21918 18660 c-76 -23 -127 -102 -114 -175 10 -49 63 -105 138 -145
104 -55 123 -83 73 -116 -30 -19 -57 -14 -110 21 l-38 26 -44 -43 -44 -43 39
-37 c46 -43 106 -62 177 -56 103 9 164 62 173 148 9 95 -25 143 -142 202 -82
41 -98 56 -85 79 13 26 69 25 102 -1 14 -11 29 -20 34 -20 5 0 27 18 48 41
l40 41 -37 32 c-57 50 -138 68 -210 46z"/>
<path d="M23427 18656 c-21 -8 -46 -21 -56 -30 -23 -21 -29 -20 -33 7 -3 20
-9 22 -70 25 l-68 3 0 -281 0 -281 68 3 67 3 5 180 c4 150 8 184 23 206 39 58
123 66 161 16 19 -26 21 -44 24 -218 l3 -190 67 3 67 3 0 215 c0 244 -6 271
-75 317 -47 30 -129 39 -183 19z"/>
<path d="M23890 18648 c-82 -42 -112 -124 -74 -203 18 -40 55 -69 143 -115 78
-42 97 -73 61 -102 -30 -24 -68 -19 -124 19 l-40 26 -38 -44 c-20 -24 -38 -47
-38 -51 0 -4 16 -19 35 -34 159 -121 384 -24 351 152 -10 51 -66 107 -151 151
-76 39 -89 51 -79 78 9 22 74 19 104 -5 34 -26 39 -26 82 17 44 43 40 59 -27
99 -65 38 -146 43 -205 12z"/>
<path d="M24733 18651 c-17 -11 -36 -28 -42 -38 -10 -18 -12 -16 -15 22 -1 17
-9 20 -58 23 l-58 3 0 -281 0 -281 68 3 67 3 5 197 c5 192 6 197 30 223 17 18
32 25 53 23 27 -3 31 1 50 50 17 46 18 55 6 63 -23 15 -72 10 -106 -10z"/>
<path d="M25735 18656 c-60 -19 -96 -41 -132 -78 -102 -107 -109 -262 -18
-382 88 -115 298 -141 430 -54 72 48 73 60 12 100 l-52 35 -34 -26 c-27 -20
-47 -26 -103 -29 -60 -4 -73 -1 -107 21 -51 34 -75 86 -69 149 8 82 64 138
147 146 61 6 87 -1 133 -31 l35 -24 57 32 57 32 -50 45 c-78 70 -204 96 -306
64z"/>
<path d="M27294 18651 c-18 -11 -39 -30 -48 -42 -16 -23 -16 -23 -16 14 l0 37
-55 0 -55 0 0 -280 0 -280 64 0 64 0 4 188 c3 163 6 191 23 220 20 32 42 44
79 39 24 -3 64 102 44 115 -22 14 -72 9 -104 -11z"/>
<path d="M27634 18649 c-108 -41 -174 -142 -174 -265 0 -127 48 -212 148 -261
50 -25 68 -28 147 -27 61 0 102 6 127 17 45 20 108 74 108 92 0 7 -24 22 -52
34 l-53 21 -49 -25 c-87 -44 -175 -26 -223 45 -42 61 -45 60 198 60 l222 0 -5
68 c-6 82 -31 134 -91 189 -77 71 -200 92 -303 52z m179 -110 c32 -17 77 -61
77 -76 0 -10 -32 -13 -145 -13 -80 0 -145 2 -145 5 0 16 38 60 65 76 34 21
114 25 148 8z"/>
<path d="M29962 18658 c-45 -15 -119 -82 -144 -132 -29 -56 -37 -185 -14 -253
55 -165 241 -232 381 -138 l35 24 0 -30 0 -30 68 3 67 3 0 275 0 275 -67 3
-68 3 0 -30 0 -30 -49 31 c-56 34 -150 46 -209 26z m204 -149 c38 -36 55 -74
56 -128 1 -127 -120 -204 -225 -143 -96 57 -97 218 -1 283 42 29 134 22 170
-12z"/>
<path d="M30954 18652 c-82 -34 -136 -98 -160 -192 -63 -248 174 -458 376
-332 l50 31 0 -28 c0 -27 1 -28 65 -30 l65 -2 0 279 0 279 -64 2 -65 2 -3 -32
-3 -31 -27 21 c-63 50 -160 64 -234 33z m194 -132 c49 -30 72 -75 72 -141 0
-93 -58 -159 -142 -161 -121 -2 -192 121 -138 239 35 78 134 108 208 63z"/>
<path d="M18890 18654 c0 -4 41 -62 90 -130 50 -67 90 -125 90 -129 0 -4 -45
-69 -100 -145 -55 -77 -100 -141 -100 -144 0 -3 34 -6 75 -6 l74 0 68 92 67
91 18 -24 c9 -13 39 -53 65 -89 l48 -65 78 -3 c42 -2 77 0 77 4 0 3 -45 69
-101 145 -55 77 -99 145 -96 152 3 7 44 66 91 132 l86 120 -57 3 c-86 5 -99
-2 -155 -78 -28 -39 -52 -70 -53 -70 -1 0 -28 34 -59 75 l-56 75 -75 0 c-41 0
-75 -3 -75 -6z"/>
<path d="M22573 18645 c-10 -29 5 -368 19 -410 17 -53 82 -117 134 -133 138
-41 279 21 315 137 6 20 13 123 16 229 l5 192 -71 0 -71 0 0 -175 c0 -230 -14
-265 -104 -265 -46 0 -84 34 -96 85 -5 22 -10 110 -10 196 l0 156 -65 2 c-52
1 -67 -2 -72 -14z"/>
<path d="M24923 18468 c6 -212 14 -249 64 -307 79 -93 259 -96 348 -6 60 60
70 104 70 320 l0 180 -67 3 -68 3 0 -175 c0 -180 -5 -211 -40 -246 -27 -27
-89 -27 -123 0 -38 30 -47 77 -47 256 l0 161 -71 2 -72 2 6 -193z"/>
<path d="M26527 18654 c-10 -10 -8 -256 3 -341 16 -121 64 -187 155 -212 131
-36 251 12 298 119 18 39 21 72 25 243 l5 197 -72 0 -71 0 0 -180 c0 -191 -7
-227 -49 -250 -34 -17 -88 -12 -116 13 -36 31 -44 78 -45 258 l0 156 -63 2
c-34 1 -66 -1 -70 -5z"/>
<path d="M6893 18605 c-22 -7 -55 -22 -72 -34 l-31 -22 0 25 c0 25 -2 26 -70
26 l-70 0 0 -275 0 -275 70 0 70 0 0 165 c0 181 7 216 55 253 37 29 86 28 122
-2 l28 -24 3 -196 3 -196 68 0 69 0 4 173 c4 184 12 218 60 251 30 21 91 20
118 -2 31 -25 39 -81 40 -264 l0 -158 70 0 70 0 0 173 c0 258 -13 312 -89 364
-70 48 -187 34 -255 -30 l-35 -33 -21 28 c-41 56 -126 78 -207 53z"/>
<path d="M5342 18408 c3 -176 6 -198 27 -245 37 -83 105 -123 210 -123 108 0
172 34 213 113 23 46 37 171 38 340 l0 107 -70 0 -70 0 0 -152 c0 -183 -5
-220 -36 -253 -17 -19 -33 -25 -64 -25 -96 0 -110 32 -110 260 l0 170 -71 0
-71 0 4 -192z"/>
<path d="M7610 18325 l0 -275 70 0 70 0 0 275 0 275 -70 0 -70 0 0 -275z"/>
<path d="M39172 17647 c-31 -33 -30 -96 2 -126 56 -53 146 -13 146 65 0 75
-98 115 -148 61z"/>
<path d="M36922 17530 c2 -72 0 -130 -4 -130 -4 0 -23 11 -43 24 -103 70 -264
31 -335 -80 -80 -127 -58 -300 52 -399 80 -72 201 -85 283 -29 44 29 43 29 47
2 3 -21 9 -23 71 -24 l67 -2 0 384 0 384 -71 0 -70 0 3 -130z m-61 -223 c43
-29 69 -80 69 -137 0 -165 -205 -223 -281 -80 -43 79 -8 200 66 230 41 17 111
11 146 -13z"/>
<path d="M40945 17641 c-104 -48 -144 -156 -94 -254 12 -23 54 -71 93 -107
160 -147 176 -165 176 -198 0 -36 -39 -72 -79 -72 -35 0 -87 33 -109 70 l-18
29 -62 -36 c-70 -41 -70 -43 0 -119 54 -58 107 -77 202 -72 63 3 81 8 118 33
54 38 88 102 88 166 0 94 -33 143 -175 263 -105 89 -128 122 -108 155 6 9 27
17 51 19 35 3 46 -2 80 -32 l39 -36 47 41 c25 22 46 47 46 54 0 20 -81 83
-130 100 -57 20 -116 19 -165 -4z"/>
<path d="M41648 17646 c-147 -43 -251 -160 -280 -315 -31 -165 57 -338 209
-413 56 -28 79 -33 157 -36 75 -3 101 0 149 18 106 40 194 127 232 233 28 74
25 202 -5 280 -30 78 -113 167 -193 207 -75 37 -193 48 -269 26z m197 -145
c92 -41 147 -128 147 -230 0 -87 -22 -140 -83 -195 -123 -111 -306 -70 -384
84 -29 56 -25 163 7 225 14 28 37 60 50 72 64 60 184 80 263 44z"/>
<path d="M37910 17550 l0 -100 -35 0 -35 0 0 -59 0 -60 33 -3 32 -3 3 -218 2
-218 68 3 67 3 3 218 2 217 41 0 40 0 -3 58 -3 57 -38 0 -37 0 0 103 0 102
-70 0 -70 0 0 -100z"/>
<path d="M18452 17629 c-50 -15 -72 -59 -72 -146 0 -71 -1 -73 -25 -73 -24 0
-25 -3 -25 -60 0 -57 1 -60 25 -60 l25 0 0 -215 0 -215 70 0 70 0 0 215 0 215
40 0 40 0 0 60 0 60 -41 0 -40 0 3 53 3 52 43 0 42 0 0 51 c0 37 -4 54 -15 58
-31 12 -111 15 -143 5z"/>
<path d="M27050 17630 c-19 -5 -45 -20 -57 -35 -20 -22 -23 -37 -23 -106 0
-78 0 -79 -25 -79 -24 0 -25 -3 -25 -60 0 -57 1 -60 25 -60 l25 0 0 -215 0
-215 65 0 65 0 0 215 0 215 45 0 45 0 0 60 0 60 -45 0 -45 0 0 43 c0 53 13 67
62 67 l38 0 0 49 c0 32 -5 51 -14 54 -29 11 -103 15 -136 7z"/>
<path d="M27294 17630 c-28 -11 -54 -48 -54 -77 0 -77 83 -120 142 -73 48 37
41 118 -13 145 -31 17 -44 18 -75 5z"/>
<path d="M40540 17347 c1 -161 -2 -300 -5 -309 -13 -34 -70 -26 -115 17 l-25
23 -52 -48 -53 -49 45 -39 c100 -87 249 -83 318 10 28 37 36 134 37 426 l0
262 -75 0 -75 0 0 -293z"/>
<path d="M42270 17265 l0 -375 70 0 70 0 2 247 3 247 139 -214 c196 -304 174
-280 252 -280 l64 0 0 375 0 375 -70 0 -70 0 -2 -242 -3 -243 -156 240 -156
240 -72 3 -71 3 0 -376z"/>
<path d="M44580 17635 c0 -3 52 -85 115 -181 l115 -175 -125 -190 c-69 -104
-125 -192 -125 -194 0 -3 35 -5 78 -5 l77 0 85 130 c47 72 87 130 90 130 3 0
43 -59 89 -130 l84 -130 80 0 79 0 -19 31 c-10 16 -66 104 -126 194 l-107 164
115 176 c63 97 115 178 115 180 0 3 -35 5 -77 5 l-78 0 -75 -115 c-41 -63 -78
-115 -82 -115 -3 0 -39 52 -80 115 l-73 115 -77 0 c-43 0 -78 -2 -78 -5z"/>
<path d="M45400 17632 c0 -5 -11 -69 -25 -143 -13 -74 -40 -228 -59 -344 -20
-115 -38 -220 -41 -232 -5 -22 -3 -23 65 -23 38 0 70 2 70 5 0 13 79 458 82
461 2 1 39 -103 82 -232 l78 -235 61 3 60 3 74 220 c41 121 78 224 82 228 4 4
24 -92 45 -214 20 -122 39 -226 42 -230 3 -5 35 -9 71 -9 l65 0 -5 28 c-3 15
-32 183 -64 375 l-58 347 -70 0 -70 -1 -85 -254 c-46 -140 -87 -251 -91 -247
-4 4 -43 118 -89 255 l-82 247 -69 0 c-38 0 -69 -4 -69 -8z"/>
<path d="M46262 17268 l3 -373 173 -3 172 -2 0 70 0 70 -100 0 -100 0 0 305 0
305 -75 0 -75 0 2 -372z"/>
<path d="M22770 17604 c-82 -215 -320 -860 -320 -866 0 -5 21 -8 47 -6 l46 3
163 435 c90 239 163 441 164 448 0 8 -15 12 -45 12 -40 0 -47 -3 -55 -26z"/>
<path d="M5060 17605 c-68 -22 -120 -53 -172 -103 -161 -155 -138 -465 45
-591 76 -52 158 -74 263 -69 81 3 100 8 165 40 41 20 87 50 102 66 33 34 30
46 -26 100 l-35 34 -33 -30 c-103 -89 -232 -102 -341 -33 -125 79 -144 268
-39 384 93 104 261 107 375 7 l37 -33 50 49 49 48 -33 34 c-17 18 -64 49 -104
69 -64 32 -83 36 -165 39 -63 3 -107 -1 -138 -11z"/>
<path d="M6614 17598 c-3 -13 -63 -174 -131 -358 -69 -184 -140 -376 -158
-426 l-33 -91 47 -2 48 -1 163 437 c89 241 165 444 167 451 4 8 -9 12 -45 12
-44 0 -52 -3 -58 -22z"/>
<path d="M21205 17606 c-64 -20 -105 -45 -161 -98 -120 -113 -149 -310 -68
-468 31 -63 108 -134 179 -167 54 -25 70 -28 170 -28 102 0 114 2 175 31 36
17 84 49 108 70 l43 39 -49 48 -49 49 -34 -30 c-78 -68 -179 -90 -280 -62 -47
13 -114 72 -142 124 -30 58 -31 174 0 231 49 92 126 138 228 138 76 0 126 -19
196 -74 l36 -28 46 47 47 48 -32 30 c-52 49 -89 71 -156 93 -71 24 -193 27
-257 7z"/>
<path d="M28170 17240 l0 -380 70 0 70 0 0 380 0 380 -70 0 -70 0 0 -380z"/>
<path d="M28840 17498 c1 -68 1 -126 1 -131 -1 -4 -20 5 -43 20 -33 21 -59 28
-110 31 -83 5 -124 -8 -181 -58 -63 -56 -91 -124 -91 -225 0 -91 19 -146 73
-207 84 -96 243 -110 334 -30 16 14 17 13 17 -11 0 -27 1 -27 70 -27 l70 0 0
380 0 380 -71 0 -70 0 1 -122z m-61 -226 c47 -35 71 -80 71 -136 -1 -128 -116
-203 -221 -144 -87 49 -105 181 -36 257 49 53 132 63 186 23z"/>
<path d="M5609 17493 c21 -60 80 -226 131 -371 l93 -263 70 3 70 3 113 315
c63 173 123 339 133 368 l20 52 -73 0 -73 0 -93 -261 c-84 -233 -95 -258 -105
-237 -7 13 -50 130 -96 261 l-83 237 -73 0 -72 0 38 -107z"/>
<path d="M21838 17278 c63 -178 121 -344 130 -370 l16 -48 68 0 c65 0 69 1 79
28 6 15 51 137 99 272 49 135 104 289 124 343 l36 97 -73 0 -73 0 -31 -87
c-18 -49 -60 -166 -94 -261 -34 -95 -63 -171 -65 -169 -4 4 -184 507 -184 514
0 2 -33 3 -73 3 l-74 0 115 -322z"/>
<path d="M37335 17436 c-96 -45 -146 -126 -153 -245 -5 -96 21 -171 79 -229
93 -93 210 -107 314 -37 l35 24 0 -29 0 -30 70 0 70 0 0 280 0 280 -70 0 -70
0 0 -31 0 -30 -32 24 c-71 53 -162 61 -243 23z m221 -131 c39 -25 68 -98 60
-153 -12 -90 -66 -142 -148 -142 -102 0 -166 89 -146 200 20 107 141 156 234
95z"/>
<path d="M38352 17447 c-45 -14 -118 -81 -144 -131 -16 -30 -23 -65 -26 -129
-4 -83 -3 -91 27 -152 18 -36 48 -78 69 -95 41 -34 116 -60 171 -60 38 0 114
31 143 57 17 15 18 14 18 -14 l0 -30 70 -2 70 -2 0 281 0 280 -70 0 -70 0 0
-32 c0 -29 -1 -30 -18 -15 -54 49 -162 69 -240 44z m190 -134 c89 -53 99 -190
19 -265 -37 -35 -45 -38 -96 -38 -51 0 -59 3 -96 38 -80 75 -72 204 18 263 36
24 115 25 155 2z"/>
<path d="M39661 17450 c-13 -6 -36 -19 -51 -30 -35 -25 -38 -25 -42 3 -3 20
-9 22 -70 25 l-68 3 0 -281 0 -281 68 3 67 3 5 175 c5 182 11 208 54 242 33
27 97 23 127 -8 23 -25 24 -30 27 -220 l3 -194 70 0 69 0 -1 208 c0 244 -8
278 -77 326 -32 23 -55 30 -99 33 -32 1 -69 -2 -82 -7z"/>
<path d="M43487 17446 c-158 -57 -235 -224 -176 -380 70 -188 307 -245 457
-111 88 79 120 189 87 300 -22 78 -105 163 -184 188 -63 20 -132 21 -184 3z
m163 -135 c74 -39 100 -139 57 -221 -54 -103 -196 -107 -257 -8 -29 47 -27
134 3 179 43 65 129 87 197 50z"/>
<path d="M44123 17441 c-17 -11 -36 -28 -42 -38 -9 -15 -10 -13 -11 15 l0 32
-60 0 -60 0 0 -280 0 -281 68 3 67 3 5 192 c5 176 7 194 26 220 17 22 29 28
57 27 33 -1 35 1 52 54 14 45 15 56 3 63 -23 15 -72 10 -105 -10z"/>
<path d="M39165 17437 c-3 -7 -4 -131 -3 -277 l3 -265 68 -3 67 -3 0 281 0
280 -65 0 c-44 0 -67 -4 -70 -13z"/>
<path d="M6995 17389 l-35 -31 0 26 c0 25 -2 26 -60 26 l-60 0 0 -275 0 -275
64 0 64 0 4 183 c3 161 6 187 24 217 17 30 26 35 59 36 37 0 39 2 57 53 10 30
15 57 12 62 -3 5 -25 9 -49 9 -35 0 -52 -6 -80 -31z"/>
<path d="M7352 17403 c-59 -21 -135 -99 -156 -159 -24 -72 -21 -178 8 -239 29
-64 101 -128 163 -146 70 -20 179 -17 233 8 45 20 110 73 110 90 0 5 -24 21
-53 35 -51 25 -54 25 -77 8 -35 -25 -106 -42 -143 -35 -49 11 -93 42 -111 79
-9 19 -16 37 -16 40 0 3 99 6 219 6 166 0 220 3 224 13 8 21 -10 123 -29 163
-26 56 -96 119 -151 138 -58 20 -164 19 -221 -1z m160 -103 c40 -11 98 -62 98
-86 0 -11 -26 -14 -145 -14 -103 0 -145 3 -145 12 0 20 78 86 107 91 15 2 33
5 38 5 6 1 27 -3 47 -8z"/>
<path d="M7933 17401 c-94 -43 -117 -163 -45 -241 15 -16 63 -49 107 -73 58
-32 81 -50 83 -66 9 -56 -69 -70 -133 -23 l-38 27 -43 -45 -43 -45 26 -27 c56
-58 198 -82 269 -45 108 56 130 193 44 271 -22 20 -71 51 -110 71 -71 36 -85
56 -58 83 19 19 50 14 92 -14 l38 -26 39 38 c21 21 39 41 39 46 0 14 -45 50
-85 69 -51 24 -129 24 -182 0z"/>
<path d="M9170 17404 c-19 -8 -45 -25 -57 -36 l-23 -21 0 31 0 32 -70 0 -70 0
0 -275 0 -275 70 0 70 0 0 170 c0 190 6 216 63 250 37 23 56 25 91 9 47 -22
56 -60 56 -253 l0 -176 69 0 69 0 4 173 c3 152 5 176 23 207 28 47 87 69 130
49 50 -24 55 -47 55 -246 l0 -183 70 0 70 0 0 213 c0 201 -1 215 -22 257 -29
58 -89 90 -166 90 -59 0 -102 -18 -149 -63 l-32 -30 -27 33 c-16 18 -43 39
-61 46 -42 18 -119 17 -163 -2z"/>
<path d="M10100 17411 c-88 -28 -162 -104 -186 -190 -32 -108 3 -243 78 -306
59 -50 115 -69 203 -69 60 0 93 6 131 23 47 20 124 85 113 95 -2 2 -29 15 -59
29 -55 24 -56 24 -81 5 -84 -63 -226 -28 -258 62 l-10 30 226 0 226 0 -6 59
c-9 108 -66 199 -152 244 -44 22 -179 33 -225 18z m171 -127 c28 -14 69 -59
69 -75 0 -5 -68 -9 -150 -9 l-151 0 15 28 c38 73 136 99 217 56z"/>
<path d="M18834 17410 c-12 -4 -31 -21 -42 -37 l-21 -28 -1 33 0 32 -60 0 -60
0 0 -275 0 -275 69 0 69 0 4 189 c3 174 5 192 24 218 16 21 30 28 55 28 32 0
35 3 55 55 12 30 20 58 17 63 -6 10 -83 8 -109 -3z"/>
<path d="M19177 17406 c-100 -37 -172 -132 -183 -244 -23 -219 200 -380 403
-292 105 45 180 168 170 281 -14 159 -120 261 -277 266 -46 2 -90 -2 -113 -11z
m194 -143 c79 -66 79 -189 0 -256 -43 -36 -91 -43 -146 -22 -58 22 -87 63 -93
132 -5 65 9 103 55 143 29 26 41 30 93 30 49 0 64 -4 91 -27z"/>
<path d="M19900 17404 c-19 -8 -45 -25 -57 -36 l-23 -21 0 31 0 32 -70 0 -70
0 0 -275 0 -275 69 0 69 0 4 173 c3 191 12 223 68 252 41 21 75 19 106 -8 35
-30 43 -80 43 -269 l1 -148 69 0 70 0 3 186 3 186 37 34 c65 59 139 40 158
-41 5 -22 10 -113 10 -202 l0 -163 70 0 70 0 -1 183 c0 100 -4 204 -8 230 -15
88 -70 138 -160 145 -73 5 -123 -10 -171 -54 l-37 -33 -21 28 c-11 15 -36 35
-55 44 -43 21 -130 21 -177 1z"/>
<path d="M23115 17408 c-11 -6 -30 -23 -42 -37 l-22 -26 -1 33 0 32 -55 0 -55
0 0 -275 0 -275 64 0 64 0 3 183 c4 162 6 186 25 217 17 30 26 35 57 35 35 0
37 2 57 53 11 30 18 58 14 63 -7 13 -85 11 -109 -3z"/>
<path d="M23432 17394 c-101 -50 -152 -140 -152 -268 0 -163 115 -277 280
-280 93 -1 152 19 211 72 l50 45 -58 27 -58 27 -40 -22 c-41 -24 -62 -28 -128
-26 -29 1 -47 9 -77 39 -21 20 -41 47 -45 60 l-6 22 221 0 222 0 -4 68 c-9
164 -119 262 -293 262 -56 0 -82 -5 -123 -26z m198 -100 c38 -15 80 -59 80
-83 0 -7 -47 -11 -145 -11 -80 0 -145 3 -145 6 0 21 41 67 75 84 49 24 82 25
135 4z"/>
<path d="M24050 17413 c-71 -29 -116 -105 -101 -172 13 -58 42 -92 110 -131
34 -19 75 -43 91 -52 20 -12 30 -26 30 -41 0 -55 -61 -63 -132 -18 l-47 30
-35 -44 c-20 -24 -36 -48 -36 -54 0 -20 81 -70 132 -81 101 -21 206 23 238
100 7 18 11 53 8 85 -6 71 -42 111 -150 166 -78 39 -94 59 -66 87 19 19 52 14
93 -14 l38 -26 40 40 c22 23 38 46 35 54 -3 8 -25 27 -48 43 -36 25 -54 30
-114 32 -39 1 -78 0 -86 -4z"/>
<path d="M25265 17405 c-16 -8 -40 -22 -52 -31 -22 -16 -23 -16 -23 10 0 26
-1 26 -70 26 l-70 0 0 -275 0 -275 70 0 70 0 0 170 c0 185 5 209 56 249 30 23
61 27 97 10 47 -21 52 -41 55 -241 l4 -188 68 0 68 0 4 173 c3 191 12 223 68
252 41 21 75 19 107 -9 l28 -24 3 -196 3 -196 70 0 69 0 0 213 c0 185 -3 217
-19 253 -27 59 -72 87 -147 92 -77 5 -124 -10 -170 -53 l-36 -34 -25 30 c-14
16 -38 36 -54 44 -36 19 -135 19 -174 0z"/>
<path d="M26165 17396 c-97 -45 -151 -124 -161 -238 -15 -156 82 -284 231
-308 109 -18 232 20 285 87 l21 27 -56 28 -55 28 -31 -22 c-22 -17 -47 -23
-97 -26 -57 -3 -72 0 -101 20 -19 12 -42 39 -53 58 l-18 35 226 3 227 2 -6 63
c-7 78 -27 126 -75 179 -55 61 -120 88 -212 88 -58 0 -87 -6 -125 -24z m177
-96 c34 -10 98 -68 98 -90 0 -6 -61 -10 -151 -10 l-151 0 19 33 c19 33 92 77
128 77 11 0 37 -5 57 -10z"/>
<path d="M27688 17411 c-77 -25 -141 -90 -173 -173 -26 -70 -18 -190 17 -249
57 -96 139 -142 253 -143 94 0 163 24 216 77 l42 42 -58 26 -58 26 -44 -25
c-37 -20 -54 -24 -108 -20 -51 3 -70 9 -91 28 -23 22 -54 70 -54 84 0 3 100 7
223 8 l222 3 -3 50 c-5 109 -61 204 -146 247 -45 24 -188 35 -238 19z m168
-120 c41 -19 74 -54 74 -78 0 -10 -34 -13 -145 -13 -87 0 -145 4 -145 10 0 5
14 25 31 45 48 55 115 68 185 36z"/>
<path d="M29195 17406 c-37 -16 -70 -52 -84 -89 -33 -86 17 -166 139 -227 84
-42 113 -87 71 -110 -34 -18 -77 -11 -119 20 l-41 29 -41 -46 -40 -46 22 -25
c31 -33 68 -51 129 -62 129 -25 239 51 239 165 0 81 -42 131 -161 190 -77 39
-84 47 -69 75 15 27 57 26 101 -4 l36 -25 42 43 41 42 -27 26 c-57 55 -168 75
-238 44z"/>
<path d="M8320 17288 c0 -193 14 -293 47 -347 79 -128 309 -131 396 -6 36 52
47 125 47 323 l0 152 -70 0 -70 0 0 -181 c0 -151 -3 -186 -17 -209 -31 -53
-103 -66 -149 -27 -35 30 -43 80 -43 270 l-1 147 -70 0 -70 0 0 -122z"/>
<path d="M24423 17223 c6 -197 12 -235 48 -288 49 -71 147 -104 249 -85 78 15
123 48 156 116 27 55 28 63 32 250 l5 194 -71 0 -71 0 -3 -189 c-3 -184 -4
-190 -27 -215 -32 -34 -80 -42 -119 -22 -51 27 -56 45 -60 244 l-4 182 -70 0
-71 0 6 -187z"/>
<path d="M27260 17135 l0 -275 70 0 70 0 0 275 0 275 -70 0 -70 0 0 -275z"/>
<path d="M3473 15071 c-26 -12 -52 -35 -70 -62 l-28 -43 -5 -940 -5 -941 -88
-2 c-48 -1 -104 -7 -124 -14 -46 -15 -108 -71 -136 -123 -22 -41 -22 -43 -22
-661 0 -576 1 -623 18 -667 22 -56 92 -123 146 -138 23 -6 402 -10 1055 -10
l1019 0 43 25 c28 17 49 39 63 69 21 43 22 51 19 538 l-3 495 -29 37 c-16 21
-47 47 -70 57 -39 18 -86 19 -1044 19 -1107 0 -1042 -4 -1082 63 -25 41 -25
93 0 134 29 48 67 63 160 63 l80 0 0 -41 c0 -58 14 -79 53 -79 18 0 38 5 45
12 9 9 12 253 12 1034 l0 1023 24 28 24 28 1141 3 1141 2 0 -295 c0 -320 4
-345 53 -378 23 -15 64 -17 329 -19 l303 -3 3 -1516 c2 -1481 2 -1517 -17
-1540 l-19 -24 -1467 0 -1467 0 -24 28 c-13 15 -24 37 -24 47 0 45 -62 66 -93
32 -32 -35 -11 -128 40 -174 55 -50 -17 -48 1563 -48 1597 0 1508 -3 1568 53
55 51 52 -52 52 1672 0 1367 -2 1600 -14 1623 -26 48 -608 620 -648 637 -33
13 -180 15 -1235 15 -1155 0 -1199 -1 -1240 -19z m2997 -663 c0 -5 -121 -8
-270 -8 l-270 0 0 277 0 278 270 -270 c149 -148 270 -273 270 -277z m-2296
-1808 c698 0 1004 -4 1026 -11 18 -7 35 -22 41 -36 5 -14 9 -221 9 -474 l0
-450 -25 -24 -24 -25 -991 0 c-1091 0 -1040 -3 -1080 62 -19 32 -20 49 -20
510 l0 477 34 -14 c30 -13 187 -15 1030 -15z"/>
<path d="M3522 12386 c-9 -5 -20 -14 -24 -20 -4 -6 -8 -131 -8 -278 0 -255 1
-269 20 -288 11 -11 29 -20 40 -20 11 0 29 9 40 20 17 17 20 33 20 110 l0 90
63 0 c170 1 264 142 191 288 -39 79 -74 96 -212 102 -63 3 -121 1 -130 -4z
m220 -126 c48 -37 41 -108 -13 -136 -16 -8 -48 -14 -74 -14 l-45 0 0 85 0 85
54 0 c38 0 60 -6 78 -20z"/>
<path d="M4643 12392 c-12 -2 -26 -9 -32 -16 -8 -10 -15 -345 -11 -548 0 -23
27 -48 51 -48 10 0 28 9 39 20 18 18 20 33 20 130 l0 110 78 0 c88 0 102 8
102 57 0 43 -21 53 -109 53 l-71 0 0 65 0 65 84 0 c91 0 116 11 116 53 0 46
-13 52 -132 57 -62 3 -123 4 -135 2z"/>
<path d="M4043 12375 c-23 -16 -23 -18 -23 -284 0 -324 -11 -301 141 -301 88
0 112 4 154 24 57 26 98 70 128 136 29 64 29 216 0 280 -27 61 -67 107 -117
132 -56 29 -249 38 -283 13z m236 -120 c69 -35 95 -187 48 -275 -29 -56 -76
-81 -142 -78 l-50 3 -3 183 -2 182 60 0 c34 0 74 -7 89 -15z"/>
<path d="M4873 14441 c-85 -21 -130 -94 -120 -191 7 -64 44 -175 89 -263 28
-56 28 -59 15 -105 -23 -77 -97 -260 -152 -377 l-51 -110 -90 -34 c-282 -105
-392 -228 -324 -362 37 -72 121 -99 193 -63 82 42 140 107 242 269 50 80 60
91 98 102 72 22 267 61 386 77 l114 16 46 -43 c99 -92 218 -157 289 -157 95 0
165 68 166 161 1 46 -3 54 -36 84 -52 48 -119 65 -286 72 l-142 6 -69 81 c-86
102 -163 204 -208 279 l-35 58 20 87 c29 122 34 155 33 239 0 80 -19 135 -55
158 -28 18 -84 25 -123 16z m61 -196 c0 -88 -10 -143 -24 -129 -26 28 -52 189
-33 208 4 4 19 6 33 4 24 -3 25 -5 24 -83z m182 -674 c30 -36 53 -66 51 -67
-1 -1 -20 -5 -42 -8 -80 -13 -211 -37 -250 -46 -78 -19 -78 -19 -34 77 23 48
51 114 64 147 13 34 28 74 34 90 l11 28 57 -78 c31 -44 80 -108 109 -143z
m518 -191 c14 -5 26 -16 26 -24 0 -19 -27 -46 -47 -46 -32 0 -170 80 -158 92
7 7 149 -10 179 -22z m-1084 -156 c0 -23 -123 -159 -162 -180 -25 -13 -28 -12
-42 8 -25 36 18 85 125 143 64 34 79 40 79 29z"/>
<path d="M18248 14294 c-55 -17 -112 -69 -139 -127 -18 -41 -19 -98 -19 -2141
0 -1564 3 -2109 12 -2137 15 -52 68 -113 121 -138 43 -21 45 -21 1355 -21
l1312 0 0 45 0 45 -585 0 -585 0 0 2195 0 2195 888 0 c846 0 889 -1 922 -19
19 -10 44 -34 55 -52 19 -33 20 -55 23 -771 l3 -738 44 0 45 0 0 748 0 747
-24 51 c-27 57 -71 96 -135 119 -64 22 -3220 22 -3293 -1z m1372 -2279 l0
-2195 -669 2 c-658 3 -670 3 -697 24 -15 11 -37 33 -48 48 l-21 27 0 2092 0
2092 23 36 c44 71 12 69 750 69 l662 0 0 -2195z"/>
<path d="M18810 13789 c-86 -15 -193 -70 -265 -139 -105 -102 -155 -220 -155
-370 0 -150 50 -268 155 -370 41 -39 89 -73 137 -95 389 -184 815 154 727 577
-41 197 -219 366 -419 398 -75 11 -103 11 -180 -1z m277 -134 c164 -81 260
-260 232 -437 -9 -58 -63 -188 -79 -188 -3 0 -21 20 -40 45 -19 25 -36 45 -39
45 -3 0 -21 13 -40 28 l-33 28 17 50 c56 156 -80 309 -245 275 -131 -27 -206
-166 -155 -289 16 -36 16 -37 -12 -57 -36 -25 -113 -105 -113 -116 0 -26 -22
-2 -50 54 -80 162 -53 341 70 471 53 56 140 109 206 126 22 5 77 7 124 5 72
-4 96 -10 157 -40z m-127 -260 c104 -54 62 -215 -56 -215 -39 0 -51 5 -80 34
-28 28 -34 42 -34 76 0 52 13 76 53 100 38 24 78 25 117 5z m-83 -312 c23 -3
63 0 88 6 33 8 51 8 66 0 35 -18 100 -81 116 -112 18 -35 19 -33 -77 -80 -59
-29 -74 -32 -160 -32 -70 0 -108 5 -145 19 -60 23 -115 57 -115 71 0 6 14 28
31 50 40 53 107 98 134 90 11 -3 39 -9 62 -12z"/>
<path d="M18448 12204 c-49 -26 -58 -59 -58 -212 0 -128 2 -142 22 -167 42
-54 53 -55 493 -55 440 0 451 1 493 55 20 25 22 39 22 167 0 157 -9 186 -66
213 -47 22 -865 22 -906 -1z m870 -96 c8 -8 12 -48 12 -113 0 -65 -4 -105 -12
-113 -17 -17 -809 -17 -826 0 -13 13 -18 219 -5 231 3 4 189 7 413 7 302 0
409 -3 418 -12z"/>
<path d="M18449 11515 c-51 -28 -58 -51 -60 -206 -1 -159 5 -178 72 -211 31
-16 73 -18 444 -18 371 0 413 2 444 18 64 32 71 51 72 202 1 151 -7 179 -56
210 -31 19 -51 20 -461 20 -351 -1 -434 -3 -455 -15z m875 -107 c10 -38 7
-188 -4 -209 -10 -18 -25 -19 -413 -19 -300 0 -406 3 -415 12 -13 13 -18 219
-5 231 3 4 192 7 419 7 l412 0 6 -22z"/>
<path d="M18428 10751 l-33 -29 -5 -138 c-6 -158 1 -189 49 -221 l34 -23 429
0 c471 0 472 0 503 60 11 22 15 64 15 171 l0 142 -36 33 -35 34 -445 0 -444 0
-32 -29z m892 -80 c13 -25 13 -201 0 -221 -8 -13 -66 -15 -405 -18 -266 -2
-402 1 -415 8 -18 10 -20 21 -20 118 0 71 4 112 12 120 9 9 115 12 415 12 388
0 403 -1 413 -19z"/>
<path d="M39082 14068 c-28 -28 -7 -74 41 -91 32 -12 16 -42 -21 -41 -38 2
-44 -21 -8 -30 60 -15 108 43 71 84 -10 11 -24 20 -30 20 -19 0 -35 24 -26 38
5 9 17 11 36 6 21 -5 27 -4 23 7 -6 18 -69 24 -86 7z"/>
<path d="M39212 13995 c3 -85 20 -118 26 -50 4 44 14 44 38 0 10 -20 26 -35
36 -35 23 0 23 3 -8 51 l-25 41 25 33 c31 40 32 45 9 45 -10 0 -29 -17 -43
-38 l-25 -37 -3 38 c-2 25 -8 37 -18 37 -12 0 -14 -15 -12 -85z"/>
<path d="M39360 13994 c0 -76 2 -85 18 -82 14 3 17 15 17 86 1 72 -1 82 -17
82 -16 0 -18 -10 -18 -86z"/>
<path d="M39434 14067 c-3 -8 -4 -45 -2 -83 l3 -69 48 -3 c28 -2 47 1 47 7 0
6 -13 11 -30 11 l-30 0 0 75 c0 61 -3 75 -15 75 -9 0 -18 -6 -21 -13z"/>
<path d="M39550 13996 l0 -86 50 0 c28 0 50 5 50 10 0 6 -13 10 -30 10 l-29 0
-3 72 c-2 60 -6 73 -20 76 -16 3 -18 -6 -18 -82z"/>
<path d="M39676 14064 c-28 -28 -17 -55 37 -88 23 -14 26 -20 16 -32 -8 -10
-21 -13 -41 -9 -21 5 -28 3 -28 -8 0 -18 46 -28 77 -16 47 18 42 79 -7 99 -39
16 -37 46 3 43 18 -1 27 3 27 13 0 20 -64 19 -84 -2z"/>
<path d="M40545 14071 c-3 -6 -5 -45 -4 -86 l2 -75 48 0 c26 0 51 5 54 10 4 6
-8 10 -29 10 -33 0 -36 3 -36 28 0 24 4 28 27 27 14 0 28 6 30 13 3 8 -6 12
-26 12 -24 0 -31 4 -31 19 0 15 8 21 33 23 17 2 32 8 32 13 0 14 -92 19 -100
6z"/>
<path d="M40680 13996 l0 -86 50 0 c65 0 90 23 90 83 0 63 -16 79 -84 85 l-56
4 0 -86z m94 38 c34 -33 4 -104 -44 -104 -18 0 -20 7 -20 60 0 57 1 60 24 60
14 0 32 -7 40 -16z"/>
<path d="M40854 14009 c1 -62 4 -73 25 -90 30 -24 62 -24 92 0 19 16 24 30 27
90 4 66 3 71 -16 71 -19 0 -21 -7 -24 -66 -2 -49 -7 -70 -20 -77 -31 -20 -48
8 -48 79 0 56 -2 64 -19 64 -16 0 -18 -8 -17 -71z"/>
<path d="M41051 14054 c-25 -31 -28 -90 -6 -121 17 -24 59 -35 92 -22 32 12
30 33 -2 25 -42 -11 -65 9 -65 54 0 47 30 76 62 59 25 -13 35 -4 18 16 -21 25
-75 19 -99 -11z"/>
<path d="M41198 13999 c-15 -45 -25 -86 -22 -91 7 -12 34 10 34 28 0 9 12 14
33 14 26 0 36 -6 45 -25 11 -24 23 -31 34 -19 4 3 -6 42 -21 87 -24 70 -31 82
-52 85 -22 3 -27 -4 -51 -79z m67 -1 c6 -23 4 -28 -12 -28 -29 0 -33 8 -21 42
12 33 23 28 33 -14z"/>
<path d="M41337 14074 c-11 -11 3 -24 26 -24 21 0 22 -4 20 -67 -1 -64 8 -90
29 -77 4 3 8 36 8 75 0 67 1 69 25 69 16 0 25 6 25 15 0 12 -14 15 -63 15 -35
0 -67 -3 -70 -6z"/>
<path d="M41490 13995 c0 -75 2 -85 18 -85 15 0 18 10 19 72 1 81 -3 98 -23
98 -11 0 -14 -19 -14 -85z"/>
<path d="M41580 14060 c-28 -28 -28 -110 1 -136 31 -28 96 -25 120 5 23 29 25
98 3 129 -21 30 -95 31 -124 2z m100 -63 c0 -67 -44 -91 -76 -42 -32 50 10
119 59 93 12 -6 17 -21 17 -51z"/>
<path d="M41759 14068 c-1 -7 -3 -46 -4 -85 -2 -56 0 -73 11 -73 9 0 14 18 16
63 l3 62 34 -62 c27 -50 39 -63 57 -63 23 0 24 2 24 85 0 68 -3 85 -15 85 -10
0 -15 -15 -17 -57 l-3 -58 -33 58 c-22 39 -38 57 -52 57 -11 0 -21 -6 -21 -12z"/>
<path d="M42200 13995 l0 -85 50 0 c28 0 50 5 50 10 0 6 -16 10 -36 10 -33 0
-35 2 -32 28 2 21 9 28 31 30 37 4 35 22 -3 22 -23 0 -30 4 -30 20 0 16 7 20
35 20 24 0 35 5 35 15 0 11 -12 15 -50 15 l-50 0 0 -85z"/>
<path d="M42330 13996 c0 -85 5 -101 28 -87 8 5 11 26 8 64 -2 31 0 57 4 57 4
0 15 -27 25 -59 18 -60 37 -81 52 -58 4 6 18 39 30 72 l21 60 1 -67 c1 -37 5
-69 10 -72 20 -13 32 25 29 96 -3 70 -4 73 -29 76 -24 3 -28 -3 -49 -57 -12
-34 -24 -61 -25 -61 -1 0 -13 27 -25 60 -20 54 -25 60 -51 60 l-29 0 0 -84z"/>
<path d="M42575 14070 c-11 -18 -2 -159 11 -164 17 -7 24 3 24 36 0 22 5 28
21 28 39 0 59 19 59 55 0 24 -6 38 -19 45 -25 13 -88 13 -96 0z m85 -45 c0
-13 -28 -35 -44 -35 -8 0 -8 55 0 63 10 10 44 -12 44 -28z"/>
<path d="M42724 13995 l1 -85 47 0 c27 0 48 5 48 10 0 6 -13 10 -30 10 l-30 0
0 75 c0 66 -2 75 -18 75 -17 0 -19 -9 -18 -85z"/>
<path d="M42858 14063 c-23 -27 -30 -80 -14 -117 11 -26 22 -35 49 -40 51 -9
85 10 98 55 13 42 7 80 -17 103 -22 22 -96 21 -116 -1z m90 -25 c29 -29 5
-108 -33 -108 -24 0 -45 30 -45 64 0 37 15 56 45 56 12 0 26 -5 33 -12z"/>
<path d="M43036 14028 c14 -28 26 -66 26 -85 0 -26 4 -33 19 -33 14 0 19 7 19
30 0 17 11 53 25 80 30 59 30 60 6 60 -12 0 -23 -13 -33 -37 l-15 -38 -16 38
c-11 26 -22 37 -37 37 -20 0 -20 -1 6 -52z"/>
<path d="M43175 14071 c-12 -20 -3 -160 10 -165 21 -8 25 4 26 73 l1 66 21
-60 c12 -33 26 -66 30 -73 14 -21 34 3 53 61 25 78 29 78 34 4 7 -95 24 -84
28 18 l3 85 -30 0 c-27 0 -31 -5 -47 -52 -25 -77 -25 -77 -50 -12 -18 48 -26
60 -47 62 -14 2 -28 -2 -32 -7z"/>
<path d="M43420 13995 l0 -85 50 0 c28 0 50 5 50 10 0 6 -16 10 -35 10 -31 0
-35 3 -35 25 0 24 12 30 48 26 6 -1 12 5 12 14 0 10 -10 15 -31 15 -26 0 -30
3 -27 23 2 18 8 21 36 19 24 -2 32 1 32 12 0 12 -11 16 -50 16 l-50 0 0 -85z"/>
<path d="M43555 14070 c-4 -6 -5 -44 -4 -85 3 -62 6 -75 19 -73 10 2 17 19 20
57 l5 53 27 -56 c23 -46 32 -56 53 -56 25 0 25 1 25 85 0 68 -3 85 -15 85 -10
0 -15 -15 -17 -57 l-3 -58 -33 58 c-31 55 -61 73 -77 47z"/>
<path d="M43720 14065 c0 -9 9 -15 25 -15 23 0 24 -3 27 -72 2 -46 7 -73 16
-76 9 -3 12 16 12 72 0 74 1 76 25 76 16 0 25 6 25 15 0 12 -14 15 -65 15 -51
0 -65 -3 -65 -15z"/>
<path d="M26937 13900 c-101 -27 -180 -57 -289 -111 -190 -94 -211 -118 -166
-187 79 -119 57 -275 -50 -360 -88 -70 -199 -78 -298 -22 -78 44 -97 41 -138
-22 -88 -138 -182 -373 -193 -483 -5 -47 -3 -54 18 -69 13 -9 33 -16 44 -16
37 0 124 -50 155 -90 43 -54 61 -103 62 -169 2 -118 -77 -224 -191 -257 -86
-25 -86 -25 -86 -85 1 -93 81 -307 172 -461 55 -92 75 -102 131 -66 73 48 161
61 244 36 55 -16 126 -83 154 -143 42 -90 31 -178 -35 -281 -21 -32 -7 -66 41
-96 135 -83 381 -182 486 -195 54 -6 82 11 82 50 0 66 89 181 163 212 151 63
340 -37 363 -192 12 -83 44 -90 199 -42 126 39 217 78 327 141 110 62 114 73
64 170 -26 51 -36 83 -36 117 0 151 121 273 270 272 52 0 72 -6 127 -36 44
-24 74 -34 89 -31 55 14 200 323 245 524 8 36 7 49 -6 68 -8 13 -24 24 -33 24
-10 0 -39 7 -64 16 -101 34 -178 139 -178 242 0 88 18 131 80 194 54 54 76 65
162 83 41 8 52 37 37 98 -24 103 -72 234 -125 342 -91 182 -114 201 -192 151
-55 -36 -108 -49 -167 -43 -200 21 -311 248 -200 411 34 51 32 80 -7 109 -134
100 -494 235 -554 208 -13 -6 -26 -22 -29 -38 -31 -143 -118 -229 -245 -240
-82 -8 -152 18 -210 76 -44 44 -80 117 -80 161 0 22 -32 50 -56 49 -10 0 -50
-9 -87 -19z m63 -161 c89 -208 367 -287 559 -158 60 40 121 116 142 177 10 30
14 33 43 26 97 -20 351 -137 342 -157 -46 -109 -48 -245 -4 -339 60 -130 177
-208 321 -216 66 -3 95 0 146 18 52 17 66 19 73 8 39 -55 160 -353 147 -361
-2 -1 -29 -14 -59 -29 -77 -36 -131 -87 -167 -155 -58 -109 -63 -237 -14 -348
30 -67 111 -148 181 -179 56 -25 60 -29 54 -54 -20 -79 -114 -299 -146 -339
-7 -8 -21 -6 -56 10 -55 24 -182 29 -249 9 -102 -30 -207 -131 -243 -235 -24
-69 -26 -193 -4 -252 25 -66 24 -67 -56 -109 -78 -41 -248 -106 -278 -106 -11
0 -29 24 -51 65 -144 279 -563 267 -682 -20 l-22 -53 -51 15 c-73 21 -225 85
-279 116 l-45 27 19 50 c71 187 -15 396 -199 483 -59 28 -77 32 -152 31 -54 0
-101 -7 -130 -17 -25 -10 -49 -19 -55 -20 -23 -5 -175 349 -160 373 3 4 17 11
32 15 40 10 128 71 158 111 102 133 109 319 17 454 -42 62 -120 125 -174 142
-21 6 -38 12 -38 14 0 33 131 348 154 371 2 2 32 -6 67 -18 87 -29 200 -24
281 13 157 72 245 235 218 403 -6 37 -18 81 -26 98 -19 36 -22 33 95 89 78 38
231 96 257 97 6 1 21 -22 34 -50z"/>
<path d="M27162 13060 c-194 -51 -367 -192 -455 -370 -203 -414 11 -893 455
-1017 46 -13 99 -17 193 -17 116 0 139 3 210 28 306 105 496 368 496 685 0
103 -11 164 -45 254 -83 220 -287 397 -514 446 -83 17 -255 13 -340 -9z m323
-105 c225 -57 401 -238 451 -462 41 -185 -17 -394 -149 -533 -168 -178 -400
-239 -627 -163 -103 34 -176 81 -253 163 -113 119 -168 264 -162 430 9 265
193 494 456 564 71 19 210 20 284 1z"/>
<path d="M8625 13861 c-48 -22 -69 -44 -90 -94 -13 -32 -15 -154 -15 -986 0
-856 -2 -949 -16 -955 -9 -3 -53 -6 -98 -6 -70 0 -91 -4 -137 -27 -66 -34
-113 -94 -128 -163 -7 -34 -11 -253 -11 -644 0 -663 0 -663 68 -738 20 -23 57
-51 82 -62 45 -21 51 -21 1268 -24 848 -2 1236 1 1263 8 52 14 116 73 129 119
8 24 10 203 8 532 l-3 495 -25 37 c-13 20 -43 46 -65 59 l-40 23 -1240 5
c-1175 5 -1241 6 -1267 23 -31 22 -58 74 -58 115 0 39 38 93 80 114 35 18 141
25 174 12 11 -4 16 -19 16 -49 0 -54 21 -77 64 -73 21 2 35 11 43 28 10 20 13
251 13 1071 0 1000 1 1047 18 1062 17 16 114 17 1195 17 l1177 0 0 -316 0
-316 34 -34 34 -34 316 0 316 0 0 -1563 0 -1564 -21 -19 c-21 -19 -60 -19
-1524 -19 -1464 0 -1503 0 -1524 19 -12 11 -21 29 -21 40 0 35 -28 66 -60 66
-57 0 -76 -53 -45 -127 20 -48 41 -71 87 -94 36 -18 86 -19 1563 -19 1477 0
1527 1 1563 19 46 23 67 46 87 94 13 32 15 221 15 1654 0 1561 -1 1619 -19
1658 -26 55 -612 639 -663 660 -33 13 -184 15 -1270 15 -1175 0 -1235 -1
-1273 -19z m2805 -406 c188 -188 269 -276 259 -280 -8 -3 -133 -4 -279 -3
l-265 3 -3 278 c-1 152 1 277 5 277 5 0 132 -124 283 -275z m-3127 -2120 c32
-13 195 -15 1262 -15 1212 0 1225 0 1245 -20 19 -19 20 -33 20 -498 l0 -479
-23 -21 -24 -22 -1226 2 -1227 3 -37 38 -38 37 -3 495 c-1 291 1 495 7 495 4
0 25 -7 44 -15z"/>
<path d="M9429 11117 c-151 -43 -243 -163 -243 -318 0 -66 5 -86 32 -142 57
-116 154 -176 283 -177 86 -1 126 9 183 46 91 59 139 142 144 252 5 94 -11
150 -64 222 -33 45 -56 65 -106 89 -75 36 -162 47 -229 28z m166 -131 c60 -28
77 -46 106 -110 67 -152 -86 -321 -249 -275 -127 35 -190 194 -121 306 58 94
165 126 264 79z"/>
<path d="M10199 11117 c-94 -21 -168 -80 -217 -172 -24 -44 -27 -61 -27 -145
0 -84 3 -101 27 -146 35 -66 115 -138 177 -159 63 -21 175 -21 224 0 54 23
117 82 117 111 0 13 -9 33 -21 45 -25 25 -62 19 -99 -16 -68 -64 -165 -58
-246 17 -81 74 -91 177 -27 270 31 46 111 88 167 88 23 0 65 -11 95 -25 46
-22 57 -23 79 -12 29 13 37 35 28 71 -4 16 -23 31 -63 49 -73 32 -142 40 -214
24z"/>
<path d="M8601 11101 c-20 -20 -21 -30 -21 -273 0 -232 7 -318 25 -336 4 -4
62 -7 128 -6 106 0 128 3 165 22 103 54 155 152 156 292 0 101 -22 173 -72
231 -57 67 -99 82 -238 87 -114 4 -123 3 -143 -17z m278 -135 c85 -81 78 -274
-13 -338 -22 -17 -49 -24 -98 -26 l-68 -4 0 202 0 202 75 -4 c65 -3 78 -7 104
-32z"/>
<path d="M20300 13587 c-87 -25 -155 -82 -202 -170 -19 -35 -23 -58 -23 -137
0 -84 3 -101 27 -146 32 -60 94 -119 157 -147 34 -16 66 -21 126 -21 70 -1 87
3 134 29 62 34 84 62 79 102 -3 24 -8 28 -37 31 -25 3 -40 -3 -60 -21 -39 -37
-65 -47 -116 -47 -121 0 -219 98 -219 220 0 162 162 264 314 199 63 -27 94
-23 98 14 2 16 -3 35 -10 44 -39 47 -183 74 -268 50z"/>
<path d="M20833 13588 c-22 -28 -18 -50 44 -228 36 -102 79 -228 97 -280 37
-107 63 -134 109 -113 22 10 37 47 116 285 50 150 91 285 91 300 0 25 -23 48
-49 48 -24 0 -43 -42 -106 -232 -37 -112 -71 -206 -74 -211 -4 -4 -40 88 -80
205 -41 117 -80 219 -89 226 -9 6 -23 12 -33 12 -9 0 -21 -6 -26 -12z"/>
<path d="M38610 13415 l0 -155 810 0 810 0 0 155 0 155 -810 0 -810 0 0 -155z"/>
<path d="M40410 13415 l0 -155 810 0 810 0 0 155 0 155 -810 0 -810 0 0 -155z"/>
<path d="M42210 13415 l0 -155 805 0 805 0 0 155 0 155 -805 0 -805 0 0 -155z"/>
<path d="M38610 13000 l0 -150 810 0 810 0 0 150 0 150 -810 0 -810 0 0 -150z"/>
<path d="M40410 13000 l0 -150 810 0 810 0 0 150 0 150 -810 0 -810 0 0 -150z"/>
<path d="M9478 12834 c-48 -26 -58 -60 -58 -202 0 -118 2 -132 23 -163 35 -53
64 -58 330 -58 338 -1 337 -2 337 230 l0 141 -34 34 -34 34 -268 0 c-218 -1
-274 -4 -296 -16z m520 -201 l3 -103 -231 0 -230 0 0 98 c0 54 3 102 7 106 4
3 106 5 227 4 l221 -3 3 -102z"/>
<path d="M10337 12832 c-19 -21 -21 -45 -7 -73 10 -18 24 -19 305 -19 281 0
295 1 305 19 14 28 12 57 -6 75 -13 14 -54 16 -298 16 -261 0 -284 -1 -299
-18z"/>
<path d="M37505 12750 c-87 -10 -141 -27 -220 -68 -136 -72 -247 -203 -302
-359 l-28 -78 -3 -2602 -2 -2603 -189 0 c-233 0 -272 -9 -346 -85 -83 -84 -85
-98 -85 -499 0 -389 3 -413 70 -489 22 -25 64 -57 92 -71 l52 -26 2197 0
c1944 0 2199 2 2213 15 29 29 29 66 2 117 0 2 -984 5 -2186 8 -2162 5 -2185 5
-2219 25 -18 11 -42 36 -53 55 -17 33 -18 58 -16 375 3 322 4 341 23 367 46
62 -86 58 1843 58 l1761 0 41 -107 c23 -60 54 -139 68 -178 32 -89 62 -137
105 -169 76 -58 39 -56 869 -56 746 0 764 1 808 21 54 24 106 72 129 119 10
19 46 110 81 203 l63 167 1768 -2 1768 -3 28 -21 c15 -12 37 -36 48 -55 19
-32 20 -52 20 -359 0 -309 -1 -327 -20 -360 -12 -19 -36 -43 -55 -55 -35 -20
-43 -20 -2209 -22 -2007 -3 -2176 -4 -2193 -20 -24 -22 -24 -84 0 -106 17 -16
187 -17 2212 -17 l2193 0 51 23 c65 30 113 78 143 144 l24 52 -3 373 c-3 360
-4 374 -25 413 -29 54 -87 110 -142 137 -42 21 -62 23 -248 26 l-203 3 -1
2577 c0 1417 -3 2591 -5 2607 -28 186 -155 367 -320 452 -129 67 -166 73 -458
73 l-256 0 0 -69 0 -69 248 -5 c274 -5 311 -11 414 -73 67 -41 140 -119 174
-186 57 -113 54 63 54 -2735 l0 -2573 -4090 0 -4090 0 0 2558 c0 1794 3 2576
11 2618 31 168 151 305 320 365 62 22 78 23 447 27 l382 4 0 68 c0 53 -4 69
-16 74 -22 8 -665 5 -739 -4z m4605 -5864 c0 -23 -125 -318 -141 -332 -20 -18
-52 -19 -763 -22 -530 -2 -749 1 -768 9 -35 14 -47 34 -93 154 -21 55 -46 121
-56 148 l-19 47 920 0 c506 0 920 -2 920 -4z"/>
<path d="M38610 12585 l0 -155 810 0 810 0 0 155 0 155 -810 0 -810 0 0 -155z"/>
<path d="M42210 12585 l0 -155 805 0 805 0 0 155 0 155 -805 0 -805 0 0 -155z"/>
<path d="M10337 12512 c-23 -25 -21 -58 3 -82 19 -19 33 -20 295 -20 262 0
276 1 295 20 25 25 26 62 2 83 -16 15 -52 17 -299 17 -258 0 -281 -1 -296 -18z"/>
<path d="M19991 12506 c-7 -8 -11 -27 -9 -43 l3 -28 455 -3 455 -2 21 45 21
45 -467 0 c-395 0 -469 -2 -479 -14z"/>
<path d="M21209 12456 c-64 -23 -107 -55 -141 -109 l-33 -52 -3 -2398 c-2
-2314 -1 -2400 16 -2440 27 -60 63 -99 118 -127 l49 -25 1338 -3 1337 -2 0 40
0 40 -1302 0 c-866 0 -1315 4 -1340 10 -50 14 -97 55 -119 105 -18 38 -19 131
-18 2390 0 1774 3 2357 12 2380 18 46 39 71 78 94 l36 21 1589 0 1589 0 39
-27 c22 -16 49 -46 60 -68 21 -40 21 -47 23 -1080 l3 -1040 40 -3 40 -3 0
1039 c0 1152 3 1100 -66 1180 -20 24 -55 53 -78 65 l-41 22 -1595 2 c-1287 2
-1602 0 -1631 -11z"/>
<path d="M38610 12165 l0 -155 810 0 810 0 0 155 0 155 -810 0 -810 0 0 -155z"/>
<path d="M40410 12165 l0 -155 810 0 810 0 0 155 0 155 -810 0 -810 0 0 -155z"/>
<path d="M9437 12192 c-24 -26 -21 -68 5 -86 20 -14 107 -16 743 -16 636 0
723 2 743 16 27 19 29 64 4 87 -17 16 -83 17 -749 17 -694 0 -731 -1 -746 -18z"/>
<path d="M21560 12101 c-6 -12 -10 -110 -10 -248 0 -240 2 -253 45 -253 37 0
45 19 45 109 l0 86 98 -98 c96 -96 124 -111 150 -85 22 22 13 42 -45 100 -56
57 -57 58 -29 58 17 0 38 11 57 29 29 29 29 30 29 148 -1 168 -7 173 -199 173
-119 0 -131 -2 -141 -19z m258 -153 l3 -88 -75 0 c-54 0 -79 -4 -90 -16 -15
-14 -16 -6 -16 91 l0 106 88 -3 87 -3 3 -87z"/>
<path d="M22002 12108 c-19 -19 -17 -481 2 -497 9 -8 62 -11 166 -9 133 3 154
5 164 21 8 12 8 22 0 35 -9 14 -30 17 -132 20 -138 3 -137 2 -130 93 l3 44 82
3 c79 3 83 4 89 28 10 41 -10 53 -94 56 l-77 3 0 65 0 65 110 2 c61 1 118 2
127 3 22 0 34 45 18 65 -16 20 -309 22 -328 3z"/>
<path d="M22475 12108 c-38 -22 -44 -41 -45 -139 0 -83 3 -100 21 -123 20 -25
24 -26 130 -26 l109 0 0 -70 0 -69 -121 -3 c-103 -3 -124 -6 -133 -20 -8 -13
-8 -23 0 -35 10 -15 30 -18 140 -21 71 -1 139 0 151 3 37 9 53 54 53 150 0 82
-1 88 -29 116 -29 28 -32 29 -136 29 l-106 0 3 68 3 67 122 3 c135 3 156 12
135 57 -11 25 -13 25 -144 25 -81 0 -141 -5 -153 -12z"/>
<path d="M22882 12108 c-9 -9 -12 -75 -12 -235 l0 -224 25 -24 c23 -24 30 -25
147 -25 94 1 128 4 143 16 19 14 20 30 25 238 3 123 4 231 2 240 -4 21 -48 32
-67 16 -12 -10 -15 -49 -15 -221 l0 -209 -90 0 -90 0 0 208 c0 213 -3 232 -40
232 -9 0 -21 -5 -28 -12z"/>
<path d="M23321 12107 c-8 -11 -11 -82 -9 -258 l3 -244 26 -3 c14 -2 31 3 37
11 7 8 12 69 14 158 l3 144 30 -47 c42 -66 72 -66 112 0 l28 47 3 -144 c1 -86
7 -150 14 -158 12 -15 54 -17 63 -3 3 6 6 119 5 252 0 179 -4 244 -13 250 -29
19 -52 1 -101 -79 -28 -46 -53 -83 -56 -83 -3 0 -28 37 -55 83 -51 84 -79 103
-104 74z"/>
<path d="M23762 12107 c-14 -16 -18 -485 -4 -499 5 -5 80 -7 168 -6 l159 3 3
29 c2 16 -2 32 -10 37 -7 5 -66 9 -130 9 l-118 0 0 71 0 70 74 -2 c40 -1 78 1
85 5 17 11 14 63 -5 70 -9 3 -47 6 -85 6 l-70 0 3 68 3 67 113 2 c62 0 119 4
127 7 18 7 20 47 3 64 -18 18 -302 17 -316 -1z"/>
<path d="M37650 12097 c-30 -16 -51 -37 -67 -67 l-23 -43 2 -2177 3 -2177 27
-35 c15 -19 42 -43 62 -52 32 -15 305 -16 3549 -14 l3516 3 28 21 c15 11 38
36 51 54 l22 33 -2 2186 -3 2186 -24 34 c-42 58 -85 71 -253 71 l-148 0 0 -75
0 -75 140 0 140 0 0 -2145 0 -2145 -3480 0 -3480 0 0 2145 0 2145 275 0 275 0
0 75 0 75 -283 0 c-277 0 -285 -1 -327 -23z"/>
<path d="M19998 12099 c-21 -12 -24 -59 -6 -77 9 -9 124 -12 458 -12 l445 0
-3 50 -4 50 -436 0 c-278 0 -443 -4 -454 -11z"/>
<path d="M38610 11765 l0 -155 810 0 810 0 0 155 0 155 -810 0 -810 0 0 -155z"/>
<path d="M42210 11765 l0 -155 805 0 805 0 0 155 0 155 -805 0 -805 0 0 -155z"/>
<path d="M9442 11874 c-27 -19 -29 -64 -4 -87 17 -16 83 -17 749 -17 694 0
731 1 746 18 24 26 21 68 -5 86 -20 14 -107 16 -743 16 -636 0 -723 -2 -743
-16z"/>
<path d="M19991 11676 c-7 -8 -11 -27 -9 -43 l3 -28 350 -3 c320 -2 351 -1
363 15 16 22 15 38 -4 57 -13 14 -59 16 -353 16 -282 0 -341 -2 -350 -14z"/>
<path d="M38610 11345 l0 -155 810 0 810 0 0 155 0 155 -810 0 -810 0 0 -155z"/>
<path d="M42210 11345 l0 -155 805 0 805 0 0 155 0 155 -805 0 -805 0 0 -155z"/>
<path d="M29050 11381 c-111 -37 -167 -62 -235 -105 -64 -42 -67 -56 -30 -130
14 -27 25 -60 25 -72 0 -46 -32 -106 -73 -135 -50 -36 -124 -40 -175 -9 -48
30 -86 26 -112 -10 -36 -51 -107 -211 -130 -293 -20 -71 -20 -80 -6 -102 8
-13 30 -26 48 -30 103 -22 163 -127 127 -222 -17 -46 -60 -83 -116 -99 -30 -9
-57 -24 -63 -35 -30 -56 118 -411 178 -426 15 -3 42 4 78 22 71 36 128 30 185
-22 64 -58 73 -132 26 -214 -32 -56 -20 -78 69 -129 85 -49 253 -110 308 -112
40 -1 65 21 66 58 0 30 39 84 79 111 46 31 111 31 166 -1 40 -24 63 -58 81
-120 15 -50 39 -57 119 -36 101 26 170 54 255 102 87 50 97 74 60 140 -37 66
-25 153 27 200 26 23 87 48 119 48 14 0 48 -12 76 -27 72 -39 91 -29 150 82
48 90 91 207 104 278 8 47 -5 64 -63 79 -86 21 -144 109 -129 193 11 55 66
111 128 126 67 18 76 37 55 122 -21 84 -79 220 -120 282 -26 41 -38 51 -66 53
-21 2 -40 -3 -53 -15 -15 -14 -36 -18 -89 -18 -66 0 -69 1 -108 39 -61 60 -71
144 -25 211 23 32 17 71 -13 95 -48 38 -204 108 -290 131 -104 28 -123 21
-141 -46 -25 -94 -119 -151 -204 -125 -51 15 -104 67 -113 112 -11 52 -32 78
-63 78 -15 -1 -65 -14 -112 -29z m89 -139 c40 -79 123 -132 216 -139 73 -6
128 7 185 46 37 25 91 90 102 123 5 14 89 -13 171 -54 54 -27 57 -30 45 -51
-7 -12 -12 -56 -12 -97 0 -64 4 -83 29 -128 54 -99 132 -146 245 -146 41 0 85
5 97 12 21 11 24 9 44 -30 23 -45 69 -163 69 -177 0 -5 -14 -14 -31 -21 -41
-17 -101 -78 -124 -126 -27 -56 -32 -163 -10 -221 22 -57 76 -118 127 -144 21
-11 38 -24 38 -30 0 -20 -62 -169 -78 -189 -15 -18 -21 -19 -57 -9 -55 15
-152 6 -202 -19 -22 -12 -59 -42 -82 -68 -65 -75 -83 -161 -55 -276 6 -24 2
-29 -47 -54 -52 -26 -160 -67 -164 -62 -2 2 -12 22 -23 44 -59 117 -228 172
-355 116 -52 -23 -119 -88 -137 -132 -14 -35 -13 -35 -126 11 -105 44 -109 48
-94 94 19 58 8 153 -26 216 -30 54 -88 104 -147 126 -42 15 -135 16 -177 1
-40 -14 -46 -7 -89 96 -46 114 -47 107 11 141 33 19 63 49 86 83 32 48 36 61
40 136 4 67 1 91 -15 127 -27 60 -68 106 -117 131 -22 11 -42 22 -44 23 -5 4
50 149 70 186 l20 36 51 -14 c126 -34 259 28 324 150 19 35 24 157 10 213 -7
27 -5 32 20 44 51 24 168 69 180 70 7 0 21 -17 32 -38z"/>
<path d="M29256 10824 c-213 -52 -369 -243 -380 -469 -20 -384 383 -647 729
-476 165 82 269 235 282 416 7 94 -9 175 -54 265 -103 211 -343 321 -577 264z
m271 -126 c57 -21 158 -106 192 -161 121 -199 36 -467 -179 -565 -74 -34 -196
-41 -271 -17 -277 88 -371 433 -175 643 112 120 279 158 433 100z"/>
<path d="M19998 11268 c-24 -20 -28 -44 -12 -67 15 -21 18 -21 460 -21 l444 0
0 50 0 50 -438 0 c-336 0 -442 -3 -454 -12z"/>
<path d="M21399 11148 c-21 -8 -26 -47 -7 -66 9 -9 156 -12 599 -12 634 0 615
-2 607 52 l-3 23 -588 5 c-324 3 -597 2 -608 -2z"/>
<path d="M40410 10930 l0 -150 810 0 810 0 0 150 0 150 -810 0 -810 0 0 -150z"/>
<path d="M42210 10930 l0 -150 805 0 805 0 0 150 0 150 -805 0 -805 0 0 -150z"/>
<path d="M19992 10848 c-19 -19 -15 -66 7 -78 13 -6 174 -10 455 -10 l436 0 0
50 0 50 -443 0 c-331 0 -446 -3 -455 -12z"/>
<path d="M21387 10793 c-4 -3 -7 -19 -7 -34 0 -21 6 -30 23 -34 12 -3 166 -4
342 -3 l320 3 0 35 0 35 -336 3 c-184 1 -338 -1 -342 -5z"/>
<path d="M38610 10510 l0 -150 810 0 810 0 0 150 0 150 -810 0 -810 0 0 -150z"/>
<path d="M40410 10510 l0 -150 810 0 810 0 0 150 0 150 -810 0 -810 0 0 -150z"/>
<path d="M21391 10526 c-7 -8 -11 -25 -9 -38 l3 -23 340 0 340 0 0 35 0 35
-331 3 c-280 2 -333 0 -343 -12z"/>
<path d="M20318 10432 l-328 -2 -6 -27 c-15 -58 -19 -58 360 -61 l346 -2 11
24 c14 30 -2 62 -33 67 -13 2 -170 3 -350 1z"/>
<path d="M21392 10268 c-18 -18 -14 -56 7 -68 12 -6 136 -10 334 -10 280 0
316 2 328 17 16 18 13 54 -5 65 -20 14 -651 9 -664 -4z"/>
<path d="M41208 10272 l-798 -2 0 -150 0 -150 800 -2 c440 -2 805 -1 810 0 16
6 13 299 -2 303 -7 2 -372 3 -810 1z"/>
<path d="M43013 10273 l-803 -3 0 -150 0 -150 805 0 805 0 0 155 c0 85 -1 154
-2 153 -2 -2 -364 -4 -805 -5z"/>
<path d="M4485 10051 c-49 -23 -99 -74 -119 -123 -14 -33 -16 -271 -16 -2223
0 -1952 2 -2190 16 -2223 20 -49 70 -100 119 -123 38 -18 101 -19 1591 -19
1133 0 1560 3 1585 11 52 18 96 55 126 107 l28 47 0 1875 c0 1817 -1 1877 -19
1925 -16 43 -66 98 -345 378 -229 231 -341 337 -376 355 l-50 27 -1250 2
c-1201 3 -1252 2 -1290 -16z m2465 -379 c0 -265 6 -310 50 -372 12 -17 41 -43
64 -58 l41 -27 278 -3 277 -3 0 -1835 c0 -1813 0 -1834 -20 -1854 -11 -11 -30
-22 -42 -25 -13 -3 -704 -4 -1536 -3 l-1514 3 -24 28 c-23 27 -24 35 -24 158
l0 129 1248 0 c1233 0 1248 1 1292 21 55 25 95 62 123 114 22 40 22 46 22 575
0 592 2 571 -66 639 -71 72 45 66 -1356 69 l-1263 2 0 1316 0 1316 29 29 29
29 1196 0 1196 0 0 -248z m590 -304 c0 -5 -81 -8 -180 -8 -188 0 -229 8 -244
45 -3 9 -6 103 -6 208 l0 192 215 -215 c118 -118 215 -218 215 -222z m-536
-2317 l26 -24 0 -504 0 -504 -25 -24 -24 -25 -1241 0 -1240 0 0 548 c0 302 3
552 7 555 4 4 561 6 1239 5 l1232 -3 26 -24z"/>
<path d="M4783 8958 c-12 -6 -27 -23 -34 -39 -15 -37 2 -82 37 -98 18 -8 374
-11 1303 -11 1278 0 1278 0 1305 21 34 27 37 86 5 115 -20 18 -58 19 -1308 21
-889 1 -1293 -2 -1308 -9z"/>
<path d="M4765 8545 c-30 -30 -32 -64 -4 -99 l20 -26 1300 0 c1286 0 1299 0
1319 20 12 12 20 33 20 55 0 22 -8 43 -20 55 -20 20 -33 20 -1315 20 l-1296 0
-24 -25z"/>
<path d="M4769 8151 c-16 -16 -29 -36 -29 -45 0 -28 22 -64 47 -75 17 -8 387
-11 1302 -11 1278 0 1278 0 1305 21 20 16 26 29 26 59 0 30 -6 43 -26 59 -27
21 -27 21 -1311 21 l-1285 0 -29 -29z"/>
<path d="M4761 7754 c-28 -35 -26 -69 4 -99 l24 -25 624 0 624 0 21 23 c29 31
29 77 -1 105 l-23 22 -626 0 -627 0 -20 -26z"/>
<path d="M4954 6912 c-238 -2 -252 -3 -270 -23 -26 -29 -24 -87 5 -110 19 -16
40 -19 117 -19 l94 0 0 -289 c0 -277 1 -289 21 -315 23 -30 72 -35 105 -12 18
14 19 32 24 313 l5 298 95 3 c110 3 140 20 140 79 0 31 -28 73 -49 73 -5 0
-15 1 -23 3 -7 1 -126 1 -264 -1z"/>
<path d="M5470 6883 c-15 -19 -20 -36 -16 -55 3 -16 53 -91 110 -167 l105
-139 -107 -142 c-88 -118 -106 -148 -106 -177 0 -55 54 -88 108 -67 8 3 48 49
88 102 40 54 82 109 94 124 l22 27 87 -117 c48 -64 95 -123 103 -129 26 -21
76 -16 100 10 41 43 30 71 -83 222 -58 76 -105 142 -105 146 0 3 43 63 95 133
109 145 115 156 115 190 0 52 -68 84 -118 57 -9 -5 -55 -61 -102 -125 -47 -63
-89 -114 -94 -113 -5 2 -50 57 -100 123 -88 115 -92 119 -132 122 -36 3 -45
-1 -64 -25z"/>
<path d="M6261 6884 c-28 -35 -26 -69 4 -99 22 -23 32 -25 120 -25 l95 0 0
-293 0 -294 23 -21 c30 -28 80 -29 107 -2 19 19 20 33 20 299 0 154 3 286 6
295 5 13 23 16 96 16 81 0 91 2 113 25 31 30 33 77 5 105 -19 19 -33 20 -294
20 l-275 0 -20 -26z"/>
<path d="M24056 9974 c-14 -14 -16 -217 -16 -2088 0 -1598 3 -2075 12 -2084 9
-9 407 -12 1728 -12 1651 0 1718 1 1733 18 16 17 17 176 17 2080 0 2049 0
2062 -20 2082 -20 20 -33 20 -1729 20 -1541 0 -1711 -2 -1725 -16z m3362
-2086 l-3 -1983 -1632 -3 -1633 -2 0 1985 0 1985 1635 0 1635 0 -2 -1982z"/>
<path d="M24350 9697 l-25 -13 -3 -664 -2 -665 21 -17 c20 -17 67 -18 670 -18
636 0 649 0 669 20 20 20 20 33 20 673 0 548 -2 656 -14 673 -14 18 -34 19
-663 21 -510 2 -653 0 -673 -10z m360 -112 c0 -3 -16 -25 -35 -50 -55 -73 -75
-154 -75 -311 0 -158 19 -231 81 -313 21 -28 39 -53 39 -55 0 -2 -17 -6 -38
-10 -54 -8 -151 -59 -206 -107 l-46 -41 0 446 0 446 140 0 c77 0 140 -2 140
-5z m393 -11 c84 -28 187 -141 187 -205 0 -20 -4 -21 -84 -18 -76 4 -89 7
-130 37 -26 17 -57 32 -69 32 -13 0 -43 -15 -67 -32 -41 -30 -51 -33 -127 -35
-45 -1 -85 2 -88 7 -3 5 1 26 10 47 60 143 222 217 368 167z m484 -426 c1
-241 0 -438 -4 -438 -3 0 -29 17 -57 39 -63 48 -140 87 -189 96 -20 4 -37 9
-37 12 0 2 18 29 40 60 64 89 75 135 75 308 0 172 -11 217 -75 309 l-40 57
143 -3 142 -3 2 -437z m-533 117 c43 -22 63 -25 148 -25 l98 0 0 -68 c0 -88
-21 -149 -72 -207 -62 -70 -126 -99 -218 -100 -170 0 -285 115 -298 297 l-5
78 99 0 c84 0 107 4 149 24 28 14 50 25 50 25 0 1 22 -10 49 -24z m228 -526
c72 -16 129 -44 181 -89 43 -38 98 -129 111 -182 l6 -28 -570 0 c-647 0 -590
-9 -546 87 48 101 139 178 246 207 69 18 491 22 572 5z"/>
<path d="M26054 9561 c-30 -5 -44 -21 -44 -52 0 -60 -5 -59 404 -59 404 0 409
1 409 54 0 57 2 56 -389 59 -198 1 -369 0 -380 -2z"/>
<path d="M26054 9281 c-30 -5 -44 -21 -44 -52 0 -61 -19 -59 550 -59 l520 0
17 26 c15 24 15 29 2 53 l-15 26 -505 5 c-278 3 -514 3 -525 1z"/>
<path d="M26028 8989 c-21 -12 -24 -69 -6 -87 9 -9 157 -12 603 -12 561 0 593
1 608 18 22 24 21 55 -1 75 -17 15 -73 17 -603 17 -378 -1 -590 -4 -601 -11z"/>
<path d="M26026 8704 c-19 -18 -21 -65 -4 -82 9 -9 157 -12 604 -12 525 0 594
2 608 16 20 20 20 43 0 72 l-15 22 -589 0 c-522 0 -590 -2 -604 -16z"/>
<path d="M26027 8422 c-24 -26 -21 -68 5 -86 19 -14 73 -16 383 -16 404 0 405
0 405 65 0 24 -6 38 -19 45 -13 6 -153 10 -389 10 -345 0 -370 -1 -385 -18z"/>
<path d="M24332 7998 c-17 -17 -15 -64 4 -82 13 -14 50 -16 249 -16 256 0 265
2 265 59 0 50 -6 51 -265 51 -174 0 -244 -3 -253 -12z"/>
<path d="M26022 7998 c-18 -18 -14 -63 6 -81 16 -15 49 -17 250 -17 252 0 262
2 262 59 0 50 -6 51 -265 51 -174 0 -244 -3 -253 -12z"/>
<path d="M24781 7732 c-300 -1 -438 -6 -448 -13 -18 -15 -17 -64 3 -83 14 -14
69 -16 460 -16 431 0 445 1 464 20 11 11 20 26 20 33 0 20 -28 54 -47 58 -10
2 -213 3 -452 1z"/>
<path d="M26036 7725 c-27 -13 -33 -66 -11 -89 15 -14 58 -16 386 -16 236 0
377 4 390 10 22 13 27 71 6 89 -18 14 -742 20 -771 6z"/>
<path d="M24332 7438 c-20 -20 -15 -76 7 -88 13 -6 242 -10 674 -10 621 0 655
1 670 18 22 24 21 55 -1 75 -17 15 -78 17 -678 17 -500 0 -663 -3 -672 -12z"/>
<path d="M26022 7438 c-20 -20 -15 -76 7 -88 13 -6 220 -10 604 -10 553 0 585
1 600 18 22 24 21 55 -1 75 -17 15 -74 17 -608 17 -446 0 -593 -3 -602 -12z"/>
<path d="M24336 7154 c-19 -18 -21 -65 -4 -82 9 -9 173 -12 674 -12 589 0 664
2 678 16 21 21 20 57 -2 77 -17 15 -78 17 -675 17 -583 0 -657 -2 -671 -16z"/>
<path d="M26026 7154 c-19 -18 -21 -65 -4 -82 9 -9 157 -12 604 -12 525 0 594
2 608 16 20 20 20 43 0 72 l-15 22 -589 0 c-522 0 -590 -2 -604 -16z"/>
<path d="M24337 6872 c-20 -22 -22 -63 -5 -80 9 -9 174 -12 680 -12 649 0 668
1 678 19 15 29 12 49 -10 71 -20 20 -33 20 -673 20 -621 0 -655 -1 -670 -18z"/>
<path d="M26027 6872 c-21 -23 -22 -65 -3 -81 10 -9 173 -12 607 -11 545 0
595 2 607 17 18 24 15 50 -8 73 -20 20 -33 20 -603 20 -553 0 -585 -1 -600
-18z"/>
<path d="M24342 6594 c-14 -10 -22 -26 -22 -44 0 -62 -22 -60 692 -60 635 0
648 0 668 20 11 11 20 29 20 40 0 11 -9 29 -20 40 -20 20 -33 20 -668 20 -570
0 -650 -2 -670 -16z"/>
<path d="M25200 6177 c-38 -10 -49 -46 -26 -82 l16 -25 590 0 c522 0 590 2
604 16 19 19 21 68 3 83 -16 13 -1138 21 -1187 8z"/>
<path d="M38610 9705 l0 -155 810 0 810 0 0 155 0 155 -810 0 -810 0 0 -155z"/>
<path d="M40410 9705 l0 -155 810 0 810 0 0 155 0 155 -810 0 -810 0 0 -155z"/>
<path d="M42210 9705 l0 -155 805 0 805 0 0 155 0 155 -805 0 -805 0 0 -155z"/>
<path d="M21449 9681 c-81 -82 34 -197 119 -118 25 23 30 81 9 108 -35 46 -88
50 -128 10z"/>
<path d="M21737 9653 c-11 -11 -8 -48 5 -61 9 -9 117 -12 424 -12 444 0 440
-1 432 52 l-3 23 -426 3 c-234 1 -429 -1 -432 -5z"/>
<path d="M38610 9285 l0 -155 810 0 810 0 0 155 0 155 -810 0 -810 0 0 -155z"/>
<path d="M40410 9285 l0 -155 810 0 810 0 0 155 0 155 -810 0 -810 0 0 -155z"/>
<path d="M42210 9285 l0 -155 805 0 805 0 0 155 0 155 -805 0 -805 0 0 -155z"/>
<path d="M21387 9303 c-4 -3 -7 -19 -7 -34 0 -21 6 -30 23 -34 12 -3 443 -4
957 -3 l935 3 0 35 0 35 -951 3 c-523 1 -954 -1 -957 -5z"/>
<path d="M21392 9038 c-14 -14 -16 -54 -3 -63 12 -7 1890 -7 1902 0 13 9 11
49 -3 63 -17 17 -1879 17 -1896 0z"/>
<path d="M40410 8870 l0 -150 810 0 810 0 0 150 0 150 -810 0 -810 0 0 -150z"/>
<path d="M42210 8870 l0 -150 805 0 805 0 0 150 0 150 -805 0 -805 0 0 -150z"/>
<path d="M21398 8779 c-21 -12 -24 -49 -6 -67 17 -17 1879 -17 1896 0 7 7 12
21 12 33 0 12 -5 26 -12 33 -16 16 -1863 17 -1890 1z"/>
<path d="M21463 8468 c-28 -13 -47 -60 -39 -93 25 -98 166 -80 166 20 0 66
-64 103 -127 73z"/>
<path d="M21748 8429 c-21 -12 -24 -49 -6 -67 17 -17 829 -17 846 0 18 18 14
56 -7 68 -27 14 -809 13 -833 -1z"/>
<path d="M21399 8078 c-21 -8 -26 -47 -7 -66 9 -9 215 -12 864 -12 928 0 884
-3 870 55 l-6 25 -851 2 c-468 2 -859 0 -870 -4z"/>
<path d="M21384 7806 c-3 -8 -4 -25 -2 -38 l3 -23 1253 -3 1252 -2 0 40 0 40
-1250 0 c-1074 0 -1251 -2 -1256 -14z"/>
<path d="M42590 2521 l0 -219 -252 -5 c-272 -5 -321 -12 -428 -64 -112 -54
-206 -180 -241 -323 -18 -72 -18 -289 0 -360 48 -193 165 -315 351 -366 89
-25 299 -25 390 -1 196 52 320 170 378 362 13 42 16 144 19 623 l4 572 -110 0
-111 0 0 -219z m-6 -671 c0 -186 -3 -235 -18 -285 -38 -125 -144 -180 -351
-179 -176 0 -272 48 -312 153 -14 37 -18 76 -18 196 1 131 3 156 22 195 25 55
54 83 115 110 70 31 142 38 363 36 l200 -1 -1 -225z"/>
<path d="M45680 2148 c0 -334 5 -624 10 -663 21 -146 96 -233 240 -279 72 -23
242 -46 342 -46 l48 0 0 108 0 108 -122 12 c-133 13 -210 32 -241 60 -45 40
-47 56 -47 352 l0 280 205 0 206 0 -3 108 -3 107 -202 3 -203 2 0 220 0 220
-115 0 -115 0 0 -592z"/>
<path d="M43440 2294 c-79 -7 -193 -35 -247 -61 -95 -44 -150 -120 -160 -219
l-6 -54 110 0 110 0 9 33 c13 45 58 64 180 78 73 7 128 7 198 0 151 -17 186
-39 186 -116 0 -79 -55 -99 -315 -115 -100 -5 -185 -16 -226 -28 -173 -49
-249 -144 -249 -312 0 -226 167 -335 510 -333 245 2 404 68 473 197 21 39 22
55 25 351 3 272 1 315 -14 354 -37 97 -148 178 -283 206 -72 16 -229 25 -301
19z m380 -739 c0 -87 -2 -98 -24 -119 -33 -34 -118 -49 -266 -49 -130 0 -230
18 -258 46 -8 8 -16 35 -19 58 -7 59 19 92 84 109 27 6 127 16 223 21 96 5
191 13 210 18 19 5 38 9 43 10 4 1 7 -42 7 -94z"/>
<path d="M47722 2289 c-102 -12 -201 -43 -258 -82 -61 -40 -114 -135 -114
-203 l0 -44 108 0 108 0 9 33 c14 44 59 64 177 77 108 12 274 0 331 -24 71
-29 75 -135 7 -168 -40 -19 -179 -38 -288 -38 -160 0 -316 -52 -382 -127 -55
-63 -73 -125 -68 -232 5 -95 25 -146 78 -199 86 -87 317 -135 529 -112 161 18
268 63 335 141 64 75 67 100 64 441 -3 289 -4 305 -25 344 -82 153 -317 227
-611 193z m418 -724 c0 -101 -15 -138 -62 -154 -62 -22 -218 -32 -321 -21
-150 15 -187 38 -187 113 0 49 30 82 87 97 27 6 127 16 223 21 96 5 189 13
205 18 55 17 55 17 55 -74z"/>
<path d="M46995 2269 c-151 -19 -268 -69 -330 -141 -64 -75 -65 -85 -65 -550
l0 -418 110 0 110 0 0 382 c0 365 1 384 21 424 32 68 89 87 312 110 l57 5 0
100 0 99 -72 -1 c-40 -1 -104 -5 -143 -10z"/>
</g>
</svg>
